<svg width="540" height="574" viewBox="0 0 540 574" fill="none" xmlns="http://www.w3.org/2000/svg">
<g clip-path="url(#clip0)">
<path d="M139.049 573.851C203.775 573.851 256.245 570.747 256.245 566.919C256.245 563.09 203.775 559.987 139.049 559.987C74.3239 559.987 21.8535 563.09 21.8535 566.919C21.8535 570.747 74.3239 573.851 139.049 573.851Z" fill="#648DB4"/>
<path d="M58.9679 451.454C58.9679 451.454 45.0283 452.522 57.37 465.26C57.37 465.26 41.4596 503.284 45.5005 521.47C49.5414 539.656 53.1751 558.728 93.4266 564.137C100.612 565.892 107.455 566.789 107.455 566.789C107.455 566.789 123.112 568.544 126.137 559.412C127.088 564.657 135.481 577.827 158.549 564.137L163.507 561.509C163.507 561.509 197.247 559.959 209.069 549.01C212.511 545.739 215.101 541.675 216.611 537.172C218.122 532.67 218.508 527.867 217.736 523.181C217.736 523.181 204.874 519.759 205.545 499.165L213.195 484.007C213.195 484.007 203.543 465.739 199.54 459.669C202.404 455.396 208.693 452.977 194.011 448.036C202.021 443.677 216.675 436.622 218.119 431.092L212.696 429.926L217.462 422.073L210.961 420.797C210.961 420.797 217.825 393.534 202.383 371.8C202.383 371.8 208.104 367.424 207.721 365.316C207.721 365.316 208.484 363.794 203.909 363.985C205.758 361.541 206.97 358.676 207.436 355.647C207.902 352.618 207.607 349.521 206.578 346.634C204.28 339.336 203.756 331.594 205.052 324.052C206.007 319.169 208.607 291.372 205.052 287.328C201.497 283.284 195.862 281.611 182.364 296.932C175.959 303.673 170.273 311.061 165.396 318.978C165.396 318.978 145.431 308.059 126.503 307.156L124.597 307.348C124.597 307.348 116.587 294.575 108.772 293.432C108.365 298.044 109.291 302.676 111.441 306.776C109.574 305.642 107.5 304.889 105.34 304.562C103.18 304.235 100.976 304.34 98.8566 304.871L104.605 311.365C94.7268 313.139 85.0939 316.078 75.9081 320.121C76.4247 318.707 70.6662 307.847 59.4195 295.403C48.1728 282.959 35.6395 280.078 36.1528 292.098C36.666 304.118 34.442 313.274 37.4872 329.479C37.177 336.388 36.2193 343.253 34.6267 349.984C34.2505 352.498 34.4128 355.064 35.1029 357.511C35.7931 359.957 36.9953 362.23 38.63 364.177L34.3051 364.368C35.5081 367.04 37.3183 369.394 39.5915 371.242C39.5915 371.242 24.9095 393.739 31.585 419.859L28.225 421.717L24.2183 422.576L29.7955 429.642L27.5064 430.439L23.0037 430.511C29.0543 436.657 36.1567 441.67 43.9745 445.313C57.0141 451.396 58.9679 451.454 58.9679 451.454Z" fill="#E4A338"/>
<path opacity="0.5" d="M107.465 566.789C107.465 566.789 123.122 568.544 126.146 559.412C127.098 564.657 135.491 577.827 158.559 564.137L163.517 561.509C163.517 561.509 197.257 559.959 209.078 549.01C212.521 545.739 215.11 541.675 216.621 537.172C218.132 532.67 218.518 527.867 217.745 523.181C214.266 521.935 211.329 519.515 209.441 516.338C198.868 534.913 183.153 537.117 169.635 554.03C166.155 558.379 155.264 562.009 149.218 563.032C141.465 564.342 136.103 554.064 127.108 555.398C116.19 556.172 114.174 563.887 105.747 562.905C100.488 562.293 86.3842 558.266 82.8702 555.398C67.9966 543.259 53.7868 538.03 47.125 528.542C51.0906 544.371 58.3717 559.439 93.4258 564.151C100.601 565.892 107.465 566.789 107.465 566.789Z" fill="#B87B35"/>
<path d="M46.9988 302.575C46.9988 302.575 59.3986 316.562 60.9109 332.828C57.7559 331.431 54.4821 330.319 51.1286 329.506C49.6471 329.65 55.6998 342.508 54.7726 344.27C53.8453 346.032 50.5538 341.875 48.8635 341.478C47.1733 341.081 49.7771 352.649 48.7575 354.018C47.7378 355.387 41.449 348.099 43.5464 332.678C45.6438 317.257 41.4935 298 46.9988 302.575Z" fill="#E5BE79"/>
<path d="M47.8573 301.815C47.8163 301.774 47.7752 301.733 47.7307 301.695C47.1516 301.143 46.3974 300.811 45.5991 300.758C45.3236 300.757 45.0509 300.813 44.7979 300.922C44.5448 301.031 44.3168 301.19 44.1278 301.391C42.7763 302.759 42.7592 306.181 42.9132 313.024C43.4135 312.404 43.9803 311.841 44.6034 311.344C44.7755 311.212 44.96 311.098 45.1543 311.002C44.9006 308.35 45.0808 305.675 45.688 303.081C45.8732 303.173 46.0457 303.288 46.2013 303.423C52.9051 311.365 57.495 320.871 59.5454 331.059C56.8806 329.861 54.0909 328.962 51.2276 328.38C51.1592 328.376 51.0907 328.376 51.0223 328.38C50.8147 328.398 50.614 328.463 50.4359 328.571C50.2578 328.679 50.1072 328.827 49.9958 329.003C49.3799 329.964 49.8932 331.655 51.6416 336.63C52.4882 338.84 53.1743 341.109 53.6945 343.418C53.0988 343.034 52.5274 342.614 51.9838 342.159C51.1569 341.377 50.1804 340.771 49.113 340.376C48.859 340.316 48.5934 340.326 48.3446 340.405C48.0957 340.484 47.8729 340.629 47.6999 340.824C46.913 341.7 47.0156 343.493 47.4946 348.01C47.6418 349.378 47.8368 351.281 47.8573 352.458C46.8886 351.188 46.1529 349.756 45.6846 348.229C45.4008 348.481 45.0611 348.662 44.6934 348.758C44.3257 348.853 43.9407 348.859 43.5701 348.776L43.4195 348.745C43.9826 350.654 44.9124 352.434 46.1568 353.987C46.4156 354.357 46.7497 354.667 47.1372 354.899C47.5246 355.13 47.9566 355.276 48.4048 355.329C48.6477 355.33 48.8875 355.274 49.105 355.166C49.3225 355.058 49.5116 354.9 49.6571 354.706C50.3209 353.813 50.2045 351.999 49.7563 347.77C49.6023 346.292 49.3868 344.243 49.3902 343.052C49.77 343.319 50.1908 343.654 50.5433 343.935C51.4957 344.921 52.7284 345.591 54.0743 345.854C54.4269 345.856 54.7728 345.758 55.072 345.572C55.3711 345.385 55.6113 345.118 55.7646 344.8C56.3976 343.589 55.6859 341.269 53.7869 335.86C53.2052 334.197 52.4559 332.069 52.1514 330.833C54.9692 331.705 57.7389 332.725 60.4487 333.889C60.6311 333.966 60.8302 333.994 61.0266 333.97C61.223 333.947 61.41 333.873 61.5694 333.756C61.7287 333.639 61.8548 333.482 61.9355 333.302C62.0161 333.121 62.0485 332.922 62.0295 332.726C60.5206 316.275 48.374 302.4 47.8573 301.815Z" fill="#631C51"/>
<path d="M190.045 308.853C190.045 308.853 184.163 314.276 182.014 332.828C181.58 336.893 185.966 331.268 189.258 332.041C192.549 332.815 187.205 336.568 184.467 345.406C182.52 349.094 190.551 341.519 191.591 343.962C192.589 347.368 193.311 350.849 193.75 354.37C194.15 356.529 198.157 356.967 197.107 337.112C196.056 317.257 202.896 292.252 190.045 308.853Z" fill="#E5BE79"/>
<path d="M196.149 344.417C196.36 347.597 195.911 350.787 194.831 353.785C194.756 353.354 194.674 352.824 194.578 352.235C194.225 349.273 193.583 346.352 192.662 343.514C192.508 343.146 192.244 342.834 191.907 342.621C191.57 342.408 191.175 342.304 190.777 342.323C189.07 342.606 187.457 343.295 186.072 344.332H186.048C187.02 341.736 188.255 339.247 189.733 336.903C191.026 334.741 191.807 333.437 191.29 332.209C191.123 331.866 190.875 331.569 190.568 331.343C190.26 331.118 189.902 330.971 189.524 330.916C189.221 330.845 188.912 330.81 188.601 330.81C186.992 330.967 185.449 331.522 184.108 332.424C183.814 332.589 183.458 332.787 183.157 332.938C185.21 315.183 190.777 309.729 190.828 309.671C190.874 309.627 190.917 309.58 190.958 309.531C194.626 304.792 195.899 304.552 196.125 304.552C196.809 304.939 196.932 307.745 196.84 311.135C197.532 310.574 198.314 310.133 199.153 309.832C199.503 307.475 199.036 305.07 197.829 303.016C197.612 302.778 197.348 302.588 197.053 302.458C196.758 302.328 196.44 302.262 196.118 302.263C194.428 302.263 192.354 304.001 189.199 308.08C188.44 308.84 182.952 314.868 180.888 332.715C180.807 333.096 180.806 333.489 180.886 333.87C180.966 334.251 181.125 334.61 181.354 334.926C181.513 335.101 181.707 335.24 181.924 335.334C182.142 335.428 182.376 335.474 182.613 335.47C183.555 335.342 184.453 334.99 185.23 334.443C186.243 333.758 187.395 333.307 188.604 333.122C188.74 333.121 188.875 333.136 189.008 333.167L189.134 333.201C188.755 334.09 188.297 334.943 187.766 335.75C185.934 338.634 184.473 341.738 183.42 344.989C183.22 345.274 183.097 345.607 183.063 345.954C183.03 346.301 183.087 346.651 183.229 346.97C183.35 347.166 183.52 347.328 183.723 347.439C183.926 347.55 184.154 347.607 184.385 347.603C185.426 347.408 186.404 346.967 187.239 346.316C188.291 345.609 189.434 345.047 190.636 344.646C191.411 347.251 191.972 349.915 192.313 352.612C192.44 353.409 192.549 354.1 192.655 354.6C192.708 355.109 192.939 355.584 193.308 355.939C193.677 356.295 194.159 356.509 194.67 356.543C194.962 356.537 195.25 356.469 195.514 356.345C195.778 356.221 196.013 356.042 196.203 355.821C197.64 353.471 198.366 350.756 198.294 348.003C198.086 347.444 197.883 346.889 197.685 346.337C197.148 345.71 196.648 345.06 196.149 344.417Z" fill="#631C51"/>
<path d="M71.6475 454.52C76.5549 443.666 84.831 434.684 95.2476 428.906C105.664 423.128 117.666 420.863 129.472 422.446C172.704 426.843 172.875 453.408 172.875 453.408C172.875 453.408 152.664 460.71 153.714 469.691C154.892 485.456 154.518 501.299 152.595 516.991C151.712 522.346 140.787 526.294 135.754 533.292C131.298 539.938 128.35 547.478 127.118 555.385C127.118 555.385 125.065 550.41 122.489 543.816C120.087 537.635 116.265 532.107 111.331 527.677C108.14 525.115 105.248 522.202 102.709 518.993C97.5385 509.385 88.858 487.172 98.695 470.944C98.6847 470.944 75.9552 452.799 71.6475 454.52Z" fill="white"/>
<path d="M95.8076 565.246H95.7905C77.3619 564.962 63.4361 558.95 54.3894 547.382C47.8086 538.533 44.1683 527.843 43.981 516.817C43.5396 500.639 53.3561 470.122 54.9848 465.182C52.6418 462.808 51.151 459.726 50.7454 456.416C50.9815 452.015 58.3277 450.845 59.166 450.725C59.4663 450.683 59.7713 450.761 60.0139 450.943C60.2564 451.126 60.4167 451.397 60.4593 451.697C60.502 451.998 60.4235 452.303 60.2413 452.545C60.0591 452.788 59.7879 452.948 59.4876 452.991C57.4346 453.288 53.1371 454.544 53.0311 456.539C53.5797 459.425 55.0037 462.072 57.1096 464.121C57.2524 464.271 57.3515 464.458 57.3961 464.661C57.4408 464.863 57.4292 465.074 57.3628 465.271C57.2464 465.613 45.8081 499.9 46.2666 516.755C46.4753 524.344 49.8421 562.245 95.8179 562.946C96.1106 562.962 96.3861 563.09 96.5876 563.303C96.7892 563.516 96.9015 563.798 96.9015 564.091C96.9015 564.384 96.7892 564.666 96.5876 564.879C96.3861 565.092 96.1106 565.219 95.8179 565.235L95.8076 565.246Z" fill="#631C51" stroke="#631C51" stroke-width="0.992257" stroke-miterlimit="10"/>
<path d="M95.3255 407.193C95.3255 407.193 93.0809 398.458 89.1666 398.673C85.2523 398.889 84.0787 405.896 87.5961 408.938C91.1135 411.98 97.4092 416.263 95.3255 407.193Z" fill="#F9FBFC"/>
<path d="M145.852 407.193C145.852 407.193 148.096 398.458 152.011 398.673C155.925 398.889 157.098 405.896 153.581 408.938C150.064 411.98 143.771 416.263 145.852 407.193Z" fill="#F9FBFC"/>
<path d="M58.5806 440.416C58.279 440.412 57.9912 440.289 57.78 440.074L49.1063 431.582C48.9989 431.477 48.9133 431.351 48.8543 431.213C48.7953 431.075 48.7641 430.926 48.7625 430.776C48.7609 430.626 48.789 430.477 48.845 430.337C48.901 430.198 48.984 430.071 49.0892 429.963C49.1943 429.856 49.3195 429.77 49.4578 429.711C49.596 429.652 49.7445 429.621 49.8948 429.62C50.0451 429.618 50.1942 429.646 50.3337 429.702C50.4731 429.758 50.6002 429.841 50.7076 429.946L57.5712 436.666L57.8347 431.674C57.8454 431.474 57.9086 431.28 58.0181 431.111C58.1277 430.943 58.2795 430.807 58.4585 430.716C58.6375 430.625 58.8372 430.583 59.0377 430.594C59.2381 430.605 59.4321 430.668 59.6002 430.778L67.7333 436.071C67.9874 436.236 68.1653 436.496 68.2279 436.793C68.2904 437.09 68.2325 437.399 68.0669 437.653C67.9013 437.907 67.6416 438.085 67.3448 438.148C67.048 438.21 66.7385 438.153 66.4845 437.987L60.0143 433.775L59.72 439.318C59.7087 439.538 59.6343 439.749 59.5056 439.928C59.377 440.106 59.1995 440.244 58.9946 440.324C58.8633 440.38 58.7231 440.411 58.5806 440.416Z" fill="#631C51"/>
<path d="M184.977 440.632C184.779 440.631 184.584 440.579 184.412 440.481C184.21 440.368 184.047 440.195 183.946 439.987C183.844 439.778 183.809 439.544 183.844 439.315L184.306 436.283L179.495 440.242C179.259 440.418 178.964 440.497 178.672 440.461C178.379 440.426 178.111 440.279 177.924 440.051C177.737 439.823 177.645 439.532 177.667 439.239C177.688 438.945 177.823 438.67 178.041 438.473L185.162 432.619C185.341 432.472 185.56 432.384 185.79 432.365C186.021 432.345 186.252 432.396 186.453 432.511C186.654 432.625 186.815 432.798 186.916 433.006C187.018 433.213 187.053 433.447 187.019 433.676L186.561 436.687L191.454 432.622C191.57 432.526 191.703 432.454 191.847 432.409C191.99 432.365 192.141 432.349 192.291 432.363C192.44 432.377 192.586 432.421 192.719 432.491C192.852 432.561 192.969 432.657 193.065 432.772C193.161 432.888 193.234 433.022 193.278 433.165C193.322 433.309 193.338 433.46 193.324 433.609C193.31 433.759 193.267 433.905 193.196 434.037C193.126 434.17 193.031 434.288 192.915 434.384L185.706 440.368C185.501 440.539 185.243 440.632 184.977 440.632Z" fill="#631C51"/>
<path d="M89.5799 420.752C89.5799 420.752 73.9501 413.745 70.2103 414.703C66.4706 415.661 66.6314 419.709 76.9919 421.276C87.3525 422.843 93.0904 423.654 89.5799 420.752Z" fill="#5C1D43"/>
<path d="M89.6415 420.855C89.6415 420.855 72.8758 417.386 69.42 419.144C65.9642 420.903 67.0249 424.804 77.4642 424.099C87.9034 423.394 93.6927 422.942 89.6415 420.855Z" fill="#5C1D43"/>
<path d="M59.3338 452.994C59.2176 452.994 59.1022 452.975 58.9916 452.939C51.8371 450.688 33.9389 444.105 22.3294 431.654C22.1863 431.5 22.0881 431.31 22.0456 431.105C22.0032 430.899 22.0181 430.686 22.0888 430.489C22.1594 430.291 22.2831 430.117 22.4463 429.985C22.6094 429.853 22.8058 429.769 23.0138 429.741L28.0845 429.026L23.2943 422.963C23.1695 422.805 23.0885 422.617 23.0595 422.418C23.0305 422.219 23.0545 422.016 23.1292 421.829C23.2038 421.643 23.3264 421.479 23.4845 421.355C23.6427 421.23 23.8308 421.15 24.03 421.122L30.2401 420.239C29.1076 414.628 25.4499 391.156 38.6367 371.653C35.9699 370.028 33.8831 367.603 32.6729 364.724C32.6081 364.549 32.5873 364.36 32.6124 364.174C32.6374 363.989 32.7075 363.812 32.8166 363.66C32.9247 363.506 33.0697 363.382 33.2383 363.299C33.4069 363.216 33.5937 363.177 33.7815 363.184L36.7069 363.277C35.2187 361.096 34.2082 358.625 33.7418 356.027C33.2754 353.428 33.3635 350.76 34.0004 348.198C36.5602 339.539 37.0883 330.406 35.5436 321.51C34.5891 314.284 34.2241 306.992 34.4521 299.707C34.8593 286.021 37.0867 284.858 37.8223 284.478L38.0516 284.358C42.0617 282.261 50.4035 277.891 77.8069 318.844C77.9757 319.097 78.0373 319.406 77.9783 319.703C77.9192 320.001 77.7443 320.263 77.4921 320.432C77.2398 320.601 76.9308 320.662 76.6331 320.603C76.3353 320.544 76.0733 320.369 75.9045 320.117C49.6405 280.868 41.9932 284.875 39.1123 286.387L38.8659 286.514C36.7172 287.787 35.7591 307.69 37.8052 321.167C39.4051 330.35 38.8653 339.778 36.2279 348.718C35.5675 351.325 35.5619 354.055 36.2114 356.665C36.8608 359.275 38.1453 361.684 39.9505 363.677C40.1121 363.836 40.2227 364.04 40.2682 364.262C40.3138 364.484 40.2923 364.714 40.2065 364.924C40.1206 365.134 39.9744 365.314 39.7862 365.44C39.5981 365.566 39.3766 365.634 39.1499 365.634H39.1123L35.6017 365.525C36.922 367.508 38.7106 369.136 40.8094 370.264C40.9573 370.337 41.0875 370.442 41.191 370.571C41.2945 370.7 41.3688 370.85 41.4088 371.01C41.4488 371.17 41.4536 371.338 41.4227 371.5C41.3919 371.662 41.3262 371.816 41.2302 371.951C25.9118 393.462 32.6763 420.64 32.7447 420.913C32.7848 421.069 32.7917 421.231 32.7648 421.389C32.738 421.548 32.6781 421.699 32.589 421.832C32.4998 421.966 32.3836 422.08 32.2477 422.165C32.1118 422.251 31.9594 422.307 31.8004 422.33L26.3258 423.106L31.116 429.173C31.2418 429.33 31.3234 429.518 31.3523 429.717C31.3812 429.916 31.3563 430.119 31.2803 430.305C31.2056 430.492 31.0831 430.656 30.9251 430.78C30.7672 430.904 30.5793 430.985 30.3804 431.014L25.5731 431.698C36.8061 442.722 53.0244 448.666 59.6896 450.763C59.9493 450.846 60.1707 451.019 60.3142 451.251C60.4578 451.483 60.514 451.758 60.4728 452.028C60.4316 452.297 60.2956 452.543 60.0894 452.722C59.8832 452.9 59.6201 452.999 59.3475 453.001L59.3338 452.994Z" fill="#631C51" stroke="#631C51" stroke-width="0.992257" stroke-miterlimit="10"/>
<path d="M74.4396 456.002C74.394 456.005 74.3483 456.005 74.3027 456.002C69.1538 455.317 64.0542 454.302 59.0356 452.963C58.757 452.872 58.524 452.677 58.3846 452.419C58.2452 452.161 58.21 451.859 58.2863 451.576C58.3626 451.293 58.5445 451.05 58.7946 450.896C59.0448 450.743 59.3441 450.692 59.631 450.753C64.5425 452.065 69.5335 453.06 74.573 453.73C74.8597 453.768 75.1213 453.913 75.3053 454.136C75.4893 454.359 75.5822 454.644 75.5653 454.933C75.5485 455.221 75.4231 455.493 75.2143 455.693C75.0055 455.893 74.7287 456.007 74.4396 456.012V456.002Z" fill="#631C51"/>
<path d="M192.187 449.812C191.925 449.811 191.672 449.72 191.469 449.555C191.266 449.391 191.126 449.161 191.071 448.906C191.016 448.65 191.051 448.383 191.168 448.15C191.286 447.916 191.48 447.73 191.718 447.622C200.81 443.661 209.217 438.283 216.624 431.688L211.833 431.004C211.635 430.975 211.447 430.894 211.289 430.77C211.131 430.646 211.008 430.483 210.933 430.296C210.859 430.11 210.834 429.907 210.862 429.708C210.89 429.509 210.971 429.321 211.094 429.163L215.885 423.096L210.41 422.32C210.251 422.297 210.098 422.242 209.962 422.156C209.826 422.07 209.709 421.957 209.62 421.823C209.531 421.689 209.471 421.538 209.444 421.38C209.418 421.221 209.425 421.059 209.466 420.903C209.534 420.629 216.281 393.424 200.98 371.94C200.884 371.806 200.818 371.652 200.787 371.489C200.756 371.327 200.762 371.16 200.802 370.999C200.843 370.838 200.918 370.688 201.022 370.559C201.125 370.43 201.256 370.324 201.404 370.25C203.495 369.123 205.277 367.499 206.592 365.521L203.081 365.631C202.851 365.641 202.623 365.581 202.428 365.459C202.233 365.337 202.08 365.158 201.99 364.947C201.9 364.735 201.876 364.5 201.921 364.275C201.966 364.049 202.078 363.842 202.243 363.681C204.048 361.688 205.333 359.28 205.983 356.67C206.632 354.061 206.626 351.331 205.965 348.725C203.328 339.785 202.788 330.357 204.388 321.174C206.441 307.697 205.476 287.793 203.324 286.521L203.078 286.394C200.2 284.885 192.553 280.872 166.289 320.124C166.12 320.376 165.858 320.551 165.56 320.61C165.262 320.669 164.953 320.607 164.701 320.439C164.449 320.27 164.274 320.008 164.215 319.71C164.156 319.412 164.218 319.103 164.386 318.851C191.793 277.895 200.132 282.268 204.142 284.365L204.371 284.485C205.103 284.861 207.334 286.011 207.741 299.714C207.971 306.999 207.606 314.291 206.65 321.516C205.105 330.413 205.633 339.546 208.193 348.205C208.83 350.767 208.918 353.435 208.451 356.034C207.985 358.632 206.975 361.103 205.486 363.284L208.408 363.191C208.596 363.184 208.783 363.224 208.951 363.307C209.12 363.39 209.265 363.514 209.373 363.667C209.483 363.819 209.553 363.995 209.579 364.181C209.604 364.366 209.584 364.555 209.52 364.731C208.31 367.61 206.223 370.034 203.557 371.66C216.737 391.163 213.086 414.635 211.953 420.246L218.163 421.129C218.362 421.157 218.551 421.237 218.709 421.362C218.867 421.486 218.989 421.649 219.064 421.836C219.139 422.023 219.163 422.226 219.134 422.425C219.105 422.624 219.024 422.812 218.899 422.97L214.109 429.033L219.18 429.748C219.387 429.777 219.582 429.862 219.745 429.994C219.907 430.126 220.03 430.3 220.101 430.497C220.171 430.694 220.186 430.907 220.145 431.112C220.103 431.317 220.006 431.507 219.864 431.66C211.949 439.265 202.729 445.382 192.645 449.716C192.501 449.78 192.345 449.812 192.187 449.812Z" fill="#631C51" stroke="#631C51" stroke-width="0.992257" stroke-miterlimit="10"/>
<path d="M167.75 456.002C167.461 455.997 167.184 455.883 166.975 455.683C166.766 455.483 166.641 455.211 166.624 454.922C166.607 454.634 166.7 454.349 166.884 454.126C167.068 453.903 167.33 453.758 167.616 453.719C175.866 452.559 183.966 450.507 191.773 447.598C191.913 447.545 192.063 447.52 192.213 447.524C192.363 447.529 192.511 447.563 192.647 447.625C192.784 447.686 192.908 447.774 193.011 447.884C193.114 447.993 193.194 448.122 193.247 448.262C193.301 448.402 193.326 448.552 193.321 448.702C193.317 448.852 193.283 449 193.221 449.137C193.159 449.274 193.071 449.397 192.962 449.5C192.853 449.603 192.724 449.683 192.584 449.737C184.601 452.708 176.321 454.806 167.887 455.995L167.75 456.002Z" fill="#631C51"/>
<path d="M162.505 562.892C162.201 562.902 161.907 562.791 161.685 562.583C161.464 562.376 161.334 562.09 161.324 561.786C161.314 561.483 161.425 561.189 161.632 560.967C161.839 560.746 162.126 560.616 162.429 560.606C162.819 560.582 201.435 557.917 209.582 545.955C216.131 536.374 223.378 519.438 210.8 483.48C207.688 475.208 203.413 467.421 198.106 460.354C197.995 460.215 197.919 460.051 197.882 459.877C197.846 459.703 197.851 459.522 197.897 459.35C197.943 459.178 198.028 459.02 198.147 458.887C198.265 458.754 198.413 458.65 198.578 458.585C198.619 458.585 202.896 456.758 202.653 454.065C202.506 452.433 197.035 450.541 192.016 449.798C191.716 449.753 191.446 449.59 191.266 449.346C191.086 449.102 191.011 448.796 191.056 448.496C191.101 448.196 191.264 447.927 191.508 447.747C191.752 447.567 192.058 447.491 192.358 447.537C195.215 447.957 204.563 449.658 204.942 453.86C204.898 455.182 204.481 456.465 203.739 457.562C202.998 458.658 201.962 459.522 200.751 460.056C205.844 467.012 209.953 474.638 212.963 482.717C222.8 510.839 222.327 531.341 211.481 547.241C202.694 560.124 164.219 562.782 162.587 562.888L162.505 562.892Z" fill="#631C51" stroke="#631C51" stroke-width="0.992257" stroke-miterlimit="10"/>
<path d="M169.057 462.4C170.867 459.717 173.6 455.67 169.655 451.109C168.843 449.932 167.784 448.947 166.552 448.221C165.32 447.495 163.944 447.047 162.521 446.907C160.729 447.208 159.022 447.892 157.517 448.911C156.012 449.931 154.744 451.263 153.8 452.816C149.718 457.798 133.831 458.8 109.521 458.8H106.784C105.97 458.8 105.162 458.8 104.368 458.8C101.521 458.8 92.9846 458.8 90.4116 457.312C89.5802 456.091 85.4606 450.438 80.2153 450.438C78.644 450.452 77.1151 450.949 75.8357 451.861C74.6431 452.57 73.6409 453.559 72.9155 454.742C72.19 455.924 71.7632 457.265 71.6716 458.65C71.7274 460.424 72.1711 462.164 72.9715 463.748C73.7718 465.333 74.9095 466.722 76.3044 467.82C76.4776 467.956 76.639 468.108 76.7869 468.271L76.5405 468.832L76.4618 468.901C75.6866 469.39 75.0176 470.03 74.4944 470.783C73.9348 471.481 73.549 472.302 73.3687 473.178C73.3311 473.315 73.314 473.407 73.3106 473.424V473.452V473.493C73.0558 474.705 73.0432 475.956 73.2734 477.173C73.5036 478.39 73.972 479.55 74.6518 480.586C75.4432 481.537 76.4182 482.32 77.5187 482.887C78.6192 483.453 79.8225 483.793 81.057 483.884C81.5317 483.954 82.0108 483.989 82.4907 483.99C87.623 483.99 89.6554 479.809 90.9898 477.041C91.3056 476.224 91.7567 475.466 92.3242 474.8L92.8033 474.629C103.296 471.299 114.278 469.774 125.281 470.119C133.577 470.159 141.864 470.675 150.101 471.666C151.09 471.895 151.644 472.993 152.465 474.745C152.964 476.543 154.036 478.129 155.518 479.263C157 480.397 158.811 481.016 160.677 481.027C161.193 481.026 161.708 480.994 162.22 480.931C163.696 480.892 165.132 480.442 166.367 479.633C167.603 478.824 168.588 477.687 169.214 476.35C169.834 474.529 170.022 472.589 169.764 470.683C169.507 468.777 168.81 466.957 167.729 465.366C167.37 464.901 168.229 463.625 169.057 462.4Z" fill="#E5BE79"/>
<g style="mix-blend-mode:multiply" opacity="0.23">
<path d="M164.219 463.129C165.847 461.367 168.308 458.701 164.756 455.697C163.019 454.029 160.736 453.046 158.33 452.932C155.316 453.209 152.512 454.594 150.461 456.819C146.786 460.097 132.477 460.758 110.579 460.758H108.115H105.939C101.725 460.928 97.5052 460.6 93.3681 459.779C90.9974 457.153 87.7113 455.535 84.1846 455.256C82.8132 455.254 81.4607 455.576 80.2361 456.193C77.2594 457.678 76.5545 459.444 76.4724 460.658C76.6014 461.935 77.0519 463.158 77.7819 464.214C78.5119 465.269 79.4976 466.123 80.6467 466.694C80.7988 466.781 80.9441 466.879 81.0813 466.988L80.8589 467.358L80.787 467.402C80.124 467.701 79.5228 468.121 79.0146 468.641C78.5307 469.062 78.175 469.611 77.9882 470.225C77.954 470.317 77.9369 470.376 77.9334 470.389V470.417C77.7074 471.232 77.7001 472.093 77.9121 472.912C78.1241 473.731 78.548 474.48 79.1412 475.084C80.7709 476.426 82.7997 477.19 84.91 477.256C85.3514 477.301 85.7859 477.325 86.2034 477.325C87.7801 477.358 89.3344 476.947 90.6882 476.138C92.0419 475.329 93.1403 474.155 93.8574 472.75C94.2201 472.203 94.7676 471.382 95.0618 471.279L95.4929 471.166C105.082 468.957 114.91 467.959 124.747 468.196C131.635 468.196 139.156 468.538 147.104 469.223C147.994 469.373 148.497 470.095 149.236 471.255C149.921 472.602 150.992 473.714 152.312 474.451C153.631 475.187 155.141 475.513 156.647 475.388C157.088 475.388 157.557 475.368 158.036 475.327C159.253 475.378 160.464 475.129 161.563 474.603C162.662 474.077 163.615 473.289 164.338 472.309C164.885 471.113 165.05 469.777 164.81 468.484C164.57 467.19 163.937 466.003 162.997 465.082C162.7 464.774 163.469 463.94 164.219 463.129Z" fill="#E5BE79"/>
</g>
<path d="M82.4808 484.866C81.9611 484.863 81.4421 484.825 80.9274 484.753C79.5805 484.648 78.2686 484.271 77.0704 483.647C75.8722 483.023 74.8124 482.163 73.9543 481.119C73.2039 479.994 72.6848 478.731 72.4269 477.404C72.169 476.076 72.1776 474.711 72.4522 473.387V473.339V473.284C72.4522 473.267 72.4796 473.15 72.5241 472.976C72.7332 471.981 73.1727 471.05 73.8071 470.256C74.3089 469.537 74.9318 468.911 75.648 468.405C74.1785 467.223 72.9837 465.735 72.1465 464.046C71.3093 462.356 70.8497 460.504 70.7996 458.619C70.8926 457.1 71.3544 455.627 72.1449 454.327C72.9354 453.026 74.0309 451.938 75.3366 451.157C76.759 450.146 78.4573 449.597 80.2021 449.583C85.6766 449.583 89.9193 455.132 90.9869 456.659C95.3394 457.833 99.8583 458.268 104.355 457.945C105.149 457.945 105.953 457.945 106.75 457.945H109.487C132.877 457.945 149.246 456.98 153.102 452.279C155.75 449.045 158.72 446.052 162.488 446.052C164.035 446.186 165.534 446.659 166.878 447.436C168.222 448.214 169.38 449.277 170.268 450.551C174.644 455.615 171.572 460.169 169.734 462.889C169.24 463.554 168.821 464.271 168.486 465.028C169.626 466.728 170.355 468.671 170.613 470.703C170.872 472.734 170.653 474.798 169.974 476.729C169.292 478.208 168.213 479.467 166.856 480.366C165.5 481.265 163.919 481.769 162.293 481.821C161.748 481.888 161.199 481.922 160.65 481.923C158.619 481.919 156.643 481.256 155.02 480.035C153.397 478.813 152.212 477.099 151.645 475.149C150.96 473.684 150.471 472.709 149.9 472.541C141.715 471.558 133.48 471.045 125.237 471.005C114.335 470.656 103.452 472.16 93.0535 475.453L92.7114 475.576C92.3359 476.17 92.0032 476.79 91.7157 477.431C91.1087 479.459 89.9012 481.255 88.2525 482.582C86.6038 483.909 84.5914 484.706 82.4808 484.866ZM74.1459 473.664C73.676 475.877 74.1003 478.187 75.3263 480.089C76.0517 480.949 76.942 481.654 77.9447 482.162C78.9473 482.671 80.0419 482.974 81.1635 483.053C81.5998 483.116 82.04 483.148 82.4808 483.148C87.0863 483.148 88.8895 479.412 90.2068 476.685C91.0519 474.937 91.4419 474.273 91.962 474.037L92.0407 474.006L92.4718 473.852C103.066 470.478 114.158 468.931 125.271 469.277C133.6 469.318 141.921 469.836 150.19 470.831H150.283C151.73 471.173 152.428 472.661 153.236 474.396C153.67 476.044 154.635 477.503 155.981 478.548C157.328 479.593 158.98 480.166 160.684 480.178C161.167 480.176 161.649 480.147 162.128 480.089C163.452 480.063 164.742 479.67 165.856 478.953C166.969 478.237 167.862 477.225 168.434 476.031C168.989 474.349 169.151 472.562 168.91 470.806C168.669 469.051 168.03 467.374 167.042 465.904C166.32 464.922 167.257 463.529 168.345 461.921C170.104 459.31 172.52 455.735 169.002 451.656C168.267 450.576 167.307 449.669 166.187 448.995C165.068 448.321 163.817 447.897 162.518 447.752C159.466 447.752 156.842 450.441 154.461 453.346C150.143 458.616 134.715 459.646 109.518 459.646H106.781H104.365C99.38 459.646 92.465 459.481 89.9775 458.044C89.8716 457.984 89.7786 457.904 89.7038 457.808C88.9681 456.724 85.047 451.307 80.2192 451.307C78.8206 451.323 77.4605 451.767 76.322 452.58C75.2407 453.215 74.3304 454.104 73.6698 455.17C73.0093 456.236 72.6183 457.447 72.5309 458.698C72.5906 460.338 73.008 461.946 73.7538 463.408C74.4997 464.87 75.556 466.151 76.8489 467.163C77.0615 467.331 77.2585 467.517 77.4374 467.72C77.5433 467.843 77.6123 467.992 77.6366 468.152C77.6608 468.312 77.6392 468.476 77.5743 468.624L77.3314 469.185C77.2811 469.298 77.2077 469.399 77.1158 469.483L77.0679 469.524C77.0212 469.564 76.9721 469.602 76.9208 469.637C76.2474 470.068 75.6659 470.629 75.21 471.286C74.7203 471.894 74.3815 472.609 74.2211 473.373L74.1732 473.578V473.633L74.1459 473.664Z" fill="#5C1D43"/>
<path d="M209.466 547.932C227.059 553.292 245.953 552.507 263.041 545.705C290.786 534.222 292.015 497.858 279.201 482.769L278.127 484.757C278.127 484.757 280.683 477.229 279.201 477.007C277.719 476.784 274.199 480.62 274.199 480.62C274.199 480.62 275.153 474.926 274.199 474.567C273.244 474.208 271.728 477.007 271.728 477.007C263.034 469.681 245.601 466.348 225.629 474.567C205.658 482.786 196.413 513.652 217.76 523.181C238.994 532.665 265.422 525.665 265.422 525.665C265.422 525.665 241.016 532.508 218.632 523.636C218.619 523.636 217.924 538.9 209.466 547.932Z" fill="#E4A338"/>
<g opacity="0.5">
<path opacity="0.5" d="M278.639 483.812C280.174 491.156 280.197 498.736 278.708 506.09C273.346 537.911 225.249 525.501 219.237 523.821C220.312 524.259 221.396 524.657 222.491 525.015C221.198 524.606 219.907 524.15 218.618 523.646C218.618 523.646 217.934 538.896 209.465 547.939C227.059 553.299 245.952 552.513 263.04 545.712C290.786 534.229 292.014 497.865 279.2 482.775L278.639 483.812ZM239.363 528.029C248.113 528.466 256.88 527.67 265.408 525.665C256.894 527.752 248.114 528.549 239.363 528.029Z" fill="#B87B35"/>
</g>
<path d="M233.361 552.603C225.125 552.691 216.926 551.479 209.068 549.01C208.89 548.946 208.73 548.838 208.603 548.697C208.477 548.555 208.387 548.385 208.343 548.2C208.298 548.016 208.3 547.823 208.349 547.64C208.397 547.456 208.49 547.288 208.62 547.149C215.672 539.621 217.15 527.348 217.414 524.289L217.266 524.224C213.276 522.583 209.894 519.742 207.589 516.094C205.284 512.446 204.17 508.172 204.401 503.863C204.677 497.365 206.772 491.076 210.446 485.71C214.12 480.344 219.226 476.117 225.184 473.51C232.57 470.366 240.502 468.704 248.529 468.617C256.673 468.372 264.686 470.714 271.416 475.306C271.674 474.81 272.041 474.379 272.491 474.047C272.94 473.715 273.46 473.49 274.01 473.39C274.21 473.391 274.408 473.427 274.595 473.496C275.108 473.691 275.964 474.02 275.727 477.564C276.69 476.581 277.976 475.981 279.347 475.874C279.576 475.907 279.795 475.99 279.987 476.118C280.18 476.246 280.341 476.415 280.459 476.613C280.927 478.428 280.807 480.345 280.117 482.088C287.357 490.672 290.04 505.385 286.827 518.736C285.49 524.948 282.667 530.742 278.601 535.624C274.534 540.507 269.345 544.331 263.478 546.769C253.922 550.681 243.687 552.664 233.361 552.603ZM211.463 547.361C218.594 549.339 225.962 550.333 233.361 550.314C243.387 550.373 253.325 548.448 262.602 544.648C268.135 542.348 273.027 538.742 276.861 534.138C280.695 529.534 283.356 524.07 284.617 518.213C287.525 506.176 285.414 493.033 279.382 484.842L279.132 485.301C278.998 485.557 278.772 485.754 278.499 485.85C278.227 485.947 277.927 485.936 277.662 485.821C277.397 485.705 277.185 485.493 277.07 485.228C276.955 484.962 276.945 484.663 277.041 484.39C277.738 482.438 278.232 480.419 278.516 478.365C277.239 479.231 276.072 480.249 275.04 481.397C274.873 481.578 274.652 481.7 274.41 481.746C274.167 481.791 273.917 481.757 273.696 481.648C273.475 481.54 273.294 481.363 273.182 481.144C273.07 480.924 273.031 480.675 273.072 480.432C273.302 479.097 273.438 477.748 273.479 476.394C273.204 476.762 272.955 477.148 272.734 477.551C272.654 477.701 272.542 477.832 272.406 477.934C272.269 478.036 272.112 478.106 271.945 478.139C271.778 478.171 271.605 478.166 271.44 478.124C271.276 478.081 271.122 478.002 270.992 477.893C264.525 473.07 256.601 470.608 248.54 470.916C240.812 471.003 233.177 472.607 226.067 475.635C220.547 478.105 215.817 482.053 212.4 487.042C208.983 492.031 207.01 497.868 206.701 503.907C206.491 507.766 207.487 511.594 209.549 514.861C211.611 518.129 214.638 520.675 218.211 522.147C219.726 522.822 221.275 523.42 222.85 523.937C228.276 525.613 233.888 526.611 239.558 526.907C240.981 526.982 242.453 527.02 243.927 527.02C251.06 527.022 258.17 526.2 265.114 524.57C265.406 524.49 265.719 524.53 265.982 524.68C266.246 524.831 266.438 525.08 266.518 525.372C266.598 525.665 266.558 525.977 266.408 526.241C266.258 526.504 266.009 526.697 265.716 526.777C258.733 528.512 251.561 529.37 244.365 529.333C242.706 529.333 241.043 529.285 239.425 529.189C233.55 528.931 227.735 527.896 222.132 526.11C221.297 525.846 220.462 525.559 219.638 525.258C218.97 533.229 216.15 540.869 211.477 547.361H211.463Z" fill="#631C51" stroke="#631C51" stroke-width="0.992257" stroke-miterlimit="10"/>
<path d="M126.53 307.173L124.624 307.365C124.624 307.365 116.614 294.592 108.799 293.449C108.392 298.061 109.318 302.693 111.468 306.793C109.601 305.659 107.527 304.906 105.367 304.579C103.207 304.252 101.003 304.357 98.8835 304.888L104.604 311.365C98.7661 312.463 92.9948 313.892 87.3186 315.645C89.5084 321.701 94.3465 334.406 104.984 360.553C123.29 405.55 89.2792 432.355 89.2792 432.355H132.049L149.841 427.298C119.772 400.924 145.889 333.068 154.139 313.849C145.346 310.178 136.028 307.925 126.53 307.173Z" fill="white"/>
<path d="M64.565 328.633C64.3345 328.634 64.1092 328.565 63.9186 328.436C63.728 328.306 63.5811 328.122 63.4971 327.907C63.4131 327.692 63.3959 327.457 63.4479 327.233C63.4999 327.008 63.6185 326.805 63.7883 326.649C64.3254 326.153 76.886 314.779 102.681 310.91L97.6071 305.726C97.4769 305.595 97.3804 305.435 97.3259 305.259C97.2713 305.082 97.2604 304.895 97.2941 304.714C97.3277 304.533 97.405 304.362 97.5191 304.217C97.6332 304.072 97.7808 303.957 97.9493 303.882C99.7344 303.218 101.635 302.921 103.538 303.009C105.44 303.097 107.305 303.569 109.022 304.395C107.446 300.854 106.681 297.006 106.78 293.131C106.795 292.979 106.84 292.831 106.913 292.696C106.986 292.561 107.086 292.443 107.205 292.347C107.325 292.251 107.462 292.181 107.61 292.139C107.757 292.097 107.911 292.086 108.063 292.105C108.436 292.153 117.179 293.388 124.685 306.099C129.298 306.294 156.058 308.08 172.82 323.734C172.933 323.835 173.024 323.958 173.089 324.096C173.154 324.233 173.19 324.382 173.197 324.534C173.203 324.685 173.18 324.837 173.127 324.979C173.074 325.121 172.994 325.252 172.89 325.363C172.786 325.474 172.662 325.563 172.523 325.625C172.385 325.687 172.235 325.721 172.084 325.725C171.932 325.729 171.781 325.702 171.639 325.647C171.498 325.592 171.369 325.509 171.26 325.403C153.892 309.189 124.289 308.371 123.991 308.364C123.794 308.36 123.601 308.305 123.431 308.205C123.261 308.104 123.12 307.961 123.023 307.789C120.127 301.839 115.129 297.174 108.994 294.695C109.413 298.876 110.622 302.94 112.556 306.67C112.685 306.902 112.73 307.171 112.683 307.431C112.636 307.692 112.5 307.929 112.298 308.1C112.096 308.271 111.84 308.367 111.575 308.371C111.31 308.375 111.052 308.286 110.845 308.121C109.41 306.981 107.75 306.156 105.974 305.701C104.198 305.245 102.347 305.168 100.539 305.476L105.87 310.91C106.019 311.063 106.122 311.254 106.168 311.463C106.213 311.672 106.2 311.889 106.129 312.09C106.058 312.292 105.932 312.469 105.765 312.603C105.599 312.736 105.398 312.821 105.186 312.846C78.5832 316.268 65.4238 328.195 65.2938 328.312C65.0974 328.503 64.8387 328.617 64.565 328.633Z" fill="#631C51" stroke="#631C51" stroke-width="0.992257" stroke-miterlimit="10"/>
<path d="M107.941 435.027C107.941 435.027 122.955 426.723 134.629 436.495" stroke="#631C51" stroke-width="1.91608" stroke-linecap="round" stroke-linejoin="round"/>
<path d="M99.2669 447.523C99.2669 447.523 94.5314 467.519 120.351 458.841C128.022 461.237 143.689 465.91 147.217 454.274L140.257 451.762L131.58 452.741L122.243 448.354L109.716 446.9L99.2669 447.523Z" fill="white"/>
<path d="M120.894 459.632C120.67 459.647 120.445 459.596 120.249 459.485C120.053 459.374 119.894 459.207 119.793 459.006C117.654 453.233 119.108 451.67 119.608 451.328C119.851 451.173 120.135 451.095 120.423 451.104C120.711 451.113 120.99 451.209 121.223 451.379C121.314 451.444 121.388 451.53 121.439 451.63C121.491 451.73 121.517 451.84 121.517 451.952C121.517 452.064 121.491 452.175 121.439 452.274C121.388 452.374 121.314 452.46 121.223 452.525C121.131 452.648 120.275 453.955 121.979 458.547C122.15 459.002 121.794 459.474 121.185 459.601C121.089 459.62 120.992 459.631 120.894 459.632Z" fill="#631C51"/>
<path d="M123.364 439.246C123.364 439.246 112.823 438.955 110.746 441.545C109.066 443.646 108.942 448.371 114.455 451.714C115.995 452.628 117.718 453.19 119.501 453.36C121.284 453.53 123.082 453.303 124.767 452.696C128.736 451.307 132.456 448.984 132.852 445.306C133.417 440.084 128.921 439.691 123.364 439.246Z" fill="#5C1E49"/>
<path d="M100.687 444.875C100.687 444.875 89.6592 467.799 120.337 458.841C120.337 458.841 141.482 467.898 147.203 455.793" stroke="#631C51" stroke-width="1.91608" stroke-linecap="round" stroke-linejoin="round"/>
<path d="M146.327 446.267C146.256 446.135 146.16 446.017 146.044 445.922C145.928 445.827 145.794 445.755 145.65 445.711C145.506 445.668 145.355 445.653 145.206 445.667C145.056 445.682 144.911 445.726 144.778 445.797C144.646 445.867 144.529 445.964 144.433 446.08C144.338 446.196 144.266 446.33 144.223 446.473C144.179 446.617 144.164 446.768 144.179 446.918C144.193 447.067 144.237 447.212 144.308 447.345C146.399 451.259 146.703 454.322 145.198 456.446C144.402 457.72 143.451 458.889 142.365 459.926L143.21 460.823C144.762 460.234 146.141 459.262 147.216 457.996C149.256 455.109 148.855 451.009 146.327 446.267Z" fill="#631C51"/>
<path d="M171.14 418.871C170.898 420.16 170.293 421.354 169.397 422.313C168.501 423.272 167.351 423.956 166.081 424.285C164.81 424.614 163.473 424.575 162.224 424.172C160.975 423.768 159.867 423.018 159.029 422.008C158.191 420.999 157.658 419.771 157.491 418.469C157.325 417.168 157.533 415.846 158.091 414.658C158.648 413.47 159.533 412.465 160.64 411.761C161.748 411.057 163.033 410.683 164.345 410.683C166.325 410.884 168.147 411.855 169.418 413.386C170.689 414.918 171.307 416.887 171.14 418.871Z" fill="#5C1D43"/>
<path d="M166.138 417.988C167.128 417.988 167.931 417.185 167.931 416.195C167.931 415.205 167.128 414.402 166.138 414.402C165.148 414.402 164.345 415.205 164.345 416.195C164.345 417.185 165.148 417.988 166.138 417.988Z" fill="white"/>
<path d="M163.079 420.513C163.079 420.774 163.002 421.028 162.857 421.245C162.713 421.461 162.507 421.63 162.266 421.73C162.026 421.83 161.761 421.856 161.505 421.805C161.25 421.754 161.015 421.629 160.831 421.444C160.646 421.26 160.521 421.025 160.47 420.77C160.419 420.514 160.445 420.25 160.545 420.009C160.645 419.768 160.814 419.562 161.03 419.418C161.247 419.273 161.502 419.196 161.762 419.196C162.112 419.196 162.447 419.334 162.694 419.581C162.941 419.829 163.079 420.164 163.079 420.513Z" fill="white"/>
<path d="M87.3428 557.749C87.3428 557.749 99.2567 560.175 103.082 559.032C106.907 557.889 115.489 552.435 127.112 554.016C138.735 555.597 141.975 562.313 154.18 559.337C159.884 558.167 165.444 556.383 170.764 554.016C170.764 554.016 152.288 574.104 135.974 568.387C130.81 565.714 129.784 566.19 126.575 561.088C126.575 561.088 117.969 571.381 101.183 565.879C101.18 565.868 88.7867 563.713 87.3428 557.749Z" fill="white"/>
<path d="M123.803 564.137C123.554 564.137 123.312 564.055 123.114 563.905C122.916 563.755 122.772 563.545 122.704 563.306C121.64 559.542 120.097 558.947 120.083 558.94C119.939 558.901 119.804 558.835 119.687 558.744C119.569 558.652 119.47 558.539 119.397 558.409C119.324 558.279 119.277 558.136 119.26 557.988C119.242 557.84 119.255 557.69 119.296 557.547C119.382 557.253 119.579 557.005 119.846 556.855C120.113 556.705 120.428 556.666 120.723 556.746C120.997 556.818 123.46 557.612 124.904 562.683C124.987 562.975 124.95 563.287 124.803 563.552C124.655 563.817 124.409 564.012 124.117 564.096C124.015 564.123 123.909 564.137 123.803 564.137Z" fill="#631C51"/>
<path d="M114.681 568.034C114.636 568.038 114.592 568.038 114.547 568.034C114.398 568.017 114.254 567.971 114.123 567.898C113.991 567.825 113.875 567.727 113.782 567.61C113.689 567.492 113.619 567.357 113.578 567.213C113.537 567.069 113.524 566.917 113.541 566.768C113.749 565.502 113.584 564.203 113.067 563.029C112.55 561.855 111.703 560.856 110.63 560.154C110.365 560.006 110.169 559.759 110.087 559.467C110.004 559.175 110.04 558.863 110.188 558.598C110.336 558.333 110.583 558.137 110.875 558.054C111.167 557.972 111.48 558.008 111.745 558.156C113.215 559.077 114.384 560.408 115.108 561.985C115.831 563.562 116.078 565.316 115.817 567.032C115.782 567.308 115.647 567.563 115.438 567.747C115.229 567.932 114.96 568.034 114.681 568.034Z" fill="#631C51"/>
<path d="M129.667 566.789H129.602C129.452 566.78 129.305 566.743 129.17 566.677C129.034 566.612 128.913 566.521 128.813 566.409C128.713 566.296 128.636 566.166 128.586 566.024C128.537 565.881 128.516 565.731 128.525 565.581C128.925 558.396 132.932 556.839 133.099 556.777C133.383 556.67 133.698 556.679 133.974 556.804C134.251 556.928 134.466 557.157 134.574 557.441C134.682 557.725 134.672 558.039 134.548 558.316C134.423 558.592 134.194 558.808 133.91 558.916C133.76 558.981 131.118 560.168 130.807 565.708C130.791 565.999 130.664 566.274 130.452 566.475C130.24 566.676 129.96 566.788 129.667 566.789Z" fill="#631C51"/>
<path d="M137.452 570.594C137.213 570.594 136.981 570.52 136.787 570.381C136.593 570.242 136.447 570.046 136.37 569.82C135.791 568.482 135.566 567.017 135.716 565.566C135.867 564.115 136.388 562.728 137.229 561.537C137.427 561.307 137.708 561.165 138.011 561.142C138.313 561.119 138.612 561.217 138.843 561.415C139.073 561.613 139.215 561.894 139.237 562.197C139.26 562.499 139.162 562.798 138.964 563.028C138.393 563.921 138.055 564.943 137.98 566C137.905 567.058 138.097 568.117 138.536 569.081C138.585 569.223 138.605 569.374 138.595 569.524C138.585 569.674 138.546 569.82 138.48 569.955C138.413 570.09 138.321 570.21 138.208 570.309C138.095 570.408 137.963 570.484 137.821 570.532C137.703 570.574 137.577 570.595 137.452 570.594Z" fill="#631C51"/>
<path d="M110.192 568.38C91.1377 568.38 75.9082 550.95 75.1897 550.115C75.0918 550.002 75.0172 549.869 74.9703 549.727C74.9234 549.584 74.905 549.433 74.9163 549.284C74.9276 549.134 74.9683 548.988 75.036 548.854C75.1038 548.72 75.1973 548.6 75.3112 548.502C75.4251 548.404 75.5572 548.33 75.6999 548.283C75.8426 548.236 75.9932 548.218 76.143 548.229C76.2928 548.24 76.4389 548.281 76.573 548.348C76.707 548.416 76.8265 548.51 76.9244 548.624C77.116 548.843 96.1434 570.59 117.152 565.222C118.671 564.945 120.112 564.346 121.379 563.465C122.647 562.583 123.71 561.441 124.498 560.113C125.014 558.31 125.153 556.42 124.905 554.56C124.657 552.701 124.028 550.913 123.058 549.308C121.403 545.236 120.143 541.015 119.294 536.703C119.237 536.405 119.3 536.096 119.471 535.845C119.641 535.594 119.904 535.421 120.202 535.363C120.5 535.306 120.809 535.37 121.06 535.54C121.311 535.71 121.485 535.974 121.542 536.272C122.359 540.411 123.563 544.463 125.138 548.377C126.265 550.272 126.974 552.385 127.22 554.576C127.465 556.767 127.241 558.985 126.561 561.082C125.64 562.717 124.373 564.132 122.85 565.228C121.327 566.325 119.583 567.077 117.74 567.432C115.274 568.061 112.738 568.38 110.192 568.38Z" fill="#631C51" stroke="#631C51" stroke-width="0.992257" stroke-miterlimit="10"/>
<path d="M141.085 570.929C137.684 570.989 134.331 570.12 131.388 568.414C129.782 567.569 128.379 566.383 127.279 564.939C126.18 563.495 125.409 561.828 125.021 560.055C124.528 555.518 130.122 539.659 130.762 537.863C130.864 537.577 131.076 537.343 131.35 537.213C131.624 537.083 131.939 537.068 132.225 537.17C132.511 537.272 132.744 537.483 132.874 537.758C133.004 538.032 133.02 538.347 132.918 538.633C131.227 543.368 126.926 556.425 127.293 559.812C127.656 561.225 128.312 562.546 129.219 563.689C130.125 564.832 131.262 565.771 132.555 566.447C136.093 568.551 142.368 570.21 152.188 566.169C162.757 561.59 171.569 553.728 177.319 543.748C177.456 543.476 177.694 543.269 177.983 543.172C178.272 543.076 178.587 543.099 178.859 543.235C179.131 543.371 179.338 543.609 179.435 543.898C179.531 544.187 179.509 544.502 179.372 544.774C173.42 555.277 164.179 563.532 153.074 568.267C149.291 569.932 145.217 570.836 141.085 570.929Z" fill="#631C51" stroke="#631C51" stroke-width="0.992257" stroke-miterlimit="10"/>
<path d="M128.651 441.638C128.651 442.192 125.763 442.644 122.202 442.644C118.64 442.644 115.752 442.192 115.752 441.638C115.752 441.083 118.64 440.632 122.202 440.632C125.763 440.632 128.651 441.083 128.651 441.638Z" fill="white"/>
<path d="M241.899 401.51C241.899 401.51 241.327 387.638 228.77 391.85C215.426 396.319 232.982 424.047 232.982 424.047C232.982 424.047 259.975 418.101 258.986 405.472C257.997 392.843 243.134 397.547 241.899 401.51Z" fill="#CA3278"/>
<path d="M230.816 411.651C228.039 410.479 225.816 408.289 224.603 405.53C226.573 412.043 229.391 418.268 232.982 424.047C232.982 424.047 259.975 418.101 258.986 405.472C258.942 404.928 258.865 404.388 258.757 403.853C249.04 413.851 240.629 415.658 230.816 411.651Z" fill="#AA2B6B"/>
<path d="M232.982 425.19C232.789 425.19 232.598 425.142 232.429 425.048C232.26 424.955 232.117 424.82 232.014 424.656C231.518 423.87 219.86 405.27 223.258 395.724C223.66 394.547 224.336 393.483 225.232 392.621C226.128 391.758 227.216 391.122 228.407 390.766C229.927 390.229 231.524 389.94 233.136 389.91C235.521 390.01 237.791 390.957 239.539 392.581C241.288 394.206 242.399 396.401 242.672 398.772C245.038 397.063 247.879 396.136 250.798 396.121C252.034 396.059 253.268 396.257 254.423 396.7C255.578 397.143 256.628 397.822 257.506 398.693C258.384 399.565 259.07 400.61 259.521 401.762C259.972 402.914 260.178 404.147 260.125 405.383C261.183 418.85 234.371 424.913 233.228 425.163C233.147 425.18 233.065 425.19 232.982 425.19ZM233.136 392.199C231.772 392.228 230.421 392.477 229.136 392.935C228.275 393.184 227.487 393.637 226.839 394.256C226.19 394.875 225.702 395.641 225.414 396.49C222.724 404.045 231.463 419.305 233.523 422.74C237.871 421.652 258.658 415.897 257.847 405.561C257.381 399.648 253.741 398.41 250.798 398.41C249.317 398.321 247.836 398.587 246.477 399.185C245.119 399.784 243.924 400.698 242.99 401.852C242.911 402.11 242.742 402.331 242.515 402.477C242.288 402.623 242.016 402.684 241.749 402.649C241.481 402.613 241.234 402.484 241.053 402.285C240.871 402.085 240.766 401.827 240.756 401.557C240.739 401.174 240.26 392.199 233.136 392.199Z" fill="#5C1D43"/>
<path d="M210.033 455.512C210.02 454.962 210.214 454.426 210.577 454.012C210.94 453.598 211.446 453.336 211.994 453.278C213.15 453.148 214.194 454.281 215.053 454.896C215.761 455.5 216.623 455.897 217.542 456.042C218.462 456.188 219.403 456.076 220.264 455.721C220.607 455.549 220.908 455.304 221.147 455.003C221.386 454.703 221.557 454.354 221.648 453.981C221.738 453.608 221.746 453.219 221.671 452.843C221.597 452.466 221.441 452.11 221.215 451.8C220.383 450.712 218.201 450.01 217.242 451.311C216.072 452.905 217.222 455.276 217.715 456.925C218.493 459.204 219.001 461.566 219.227 463.964C219.292 465.086 219.449 466.923 218.156 467.385C217.989 467.429 217.816 467.44 217.645 467.415C217.474 467.391 217.31 467.333 217.163 467.244C217.015 467.154 216.887 467.037 216.786 466.897C216.685 466.757 216.614 466.599 216.575 466.431C216.36 465.746 216.863 464.932 217.198 464.378C217.735 463.444 218.362 462.565 219.07 461.753C219.278 461.521 220.5 460.19 220.78 461.004C220.93 461.697 220.991 462.406 220.962 463.115C221.02 464.005 221.058 464.898 221.085 465.787C221.089 465.859 221.118 465.928 221.167 465.981C221.216 466.034 221.282 466.068 221.354 466.078C221.425 466.087 221.498 466.072 221.56 466.034C221.621 465.996 221.667 465.938 221.691 465.869C221.875 465.414 222.84 462.677 223.631 463.067C224.293 463.508 225.036 463.814 225.817 463.967C226.583 464.06 227.36 463.96 228.077 463.675C228.794 463.391 229.429 462.931 229.923 462.338C230.169 462.03 229.738 461.592 229.488 461.904C228.876 462.653 228.014 463.155 227.061 463.319C226.108 463.482 225.128 463.296 224.301 462.793C223.446 462.266 223.073 462.263 222.416 463.101C221.851 463.901 221.405 464.778 221.092 465.705L221.697 465.787C221.656 464.6 221.598 463.413 221.513 462.225C221.472 461.664 221.564 460.367 220.828 460.145C220.093 459.923 219.49 460.487 218.974 460.956C218.234 461.694 217.59 462.523 217.058 463.423C216.192 464.761 215.162 466.65 216.852 467.806C217.143 467.976 217.473 468.065 217.809 468.065C218.145 468.065 218.475 467.976 218.765 467.806C219.102 467.564 219.373 467.241 219.552 466.866C219.732 466.492 219.814 466.079 219.792 465.664C219.901 463.397 219.605 461.128 218.916 458.965C218.618 457.873 218.279 456.792 217.961 455.704C217.399 454.552 217.245 453.242 217.526 451.991C218.153 450.592 220.12 451.437 220.791 452.313C221.68 453.476 220.688 454.934 219.549 455.393C217.177 456.333 215.306 454.12 213.479 453.08C213.055 452.835 212.574 452.708 212.086 452.712C211.597 452.716 211.118 452.851 210.699 453.103C210.28 453.355 209.936 453.714 209.702 454.144C209.469 454.574 209.355 455.058 209.373 455.546C209.381 455.623 209.417 455.694 209.474 455.745C209.531 455.797 209.606 455.825 209.682 455.825C209.759 455.825 209.834 455.797 209.891 455.745C209.948 455.694 209.984 455.623 209.992 455.546L210.033 455.512Z" fill="#631C51"/>
<path d="M228.934 460.651L230.399 460.261C230.438 460.251 230.474 460.232 230.506 460.207C230.538 460.182 230.565 460.151 230.585 460.116C230.605 460.081 230.618 460.042 230.623 460.002C230.628 459.962 230.625 459.921 230.614 459.882C230.603 459.843 230.585 459.806 230.56 459.774C230.535 459.742 230.504 459.715 230.469 459.695C230.434 459.675 230.395 459.662 230.354 459.657C230.314 459.652 230.273 459.655 230.234 459.666L228.77 460.056C228.691 460.078 228.624 460.13 228.583 460.201C228.543 460.273 228.533 460.357 228.554 460.436C228.576 460.515 228.628 460.582 228.7 460.622C228.771 460.663 228.855 460.673 228.934 460.651Z" fill="#631C51"/>
<path d="M213.257 459.444C213.474 459.838 213.746 460.2 214.064 460.518C214.122 460.576 214.2 460.609 214.282 460.609C214.364 460.61 214.443 460.577 214.501 460.52C214.559 460.462 214.592 460.384 214.592 460.302C214.592 460.22 214.56 460.142 214.502 460.084C214.22 459.803 213.981 459.482 213.791 459.132C213.599 458.79 213.065 459.095 213.257 459.444Z" fill="#631C51"/>
<path d="M213.941 458.992L214.875 460.292C215.108 460.614 215.642 460.292 215.409 459.984L214.475 458.681C214.246 458.359 213.712 458.681 213.941 458.992Z" fill="#631C51"/>
<path d="M213.985 462.482C214.308 462.774 214.718 462.949 215.152 462.981C215.586 463.012 216.018 462.898 216.38 462.657C216.697 462.294 216.895 461.842 216.948 461.363C217 460.884 216.905 460.401 216.674 459.977C216.534 459.611 215.939 459.769 216.079 460.142C216.223 460.417 216.307 460.72 216.325 461.03C216.342 461.341 216.293 461.651 216.181 461.941C215.788 462.718 214.813 462.311 214.296 461.941C213.954 461.712 213.66 462.249 213.985 462.475V462.482Z" fill="#631C51"/>
<path d="M12.6427 381.367C12.6434 382.617 12.2731 383.84 11.5788 384.881C10.8844 385.921 9.89708 386.732 8.74175 387.211C7.58642 387.69 6.31496 387.816 5.08818 387.572C3.8614 387.329 2.73442 386.727 1.84978 385.842C0.965142 384.958 0.362587 383.832 0.118332 382.605C-0.125922 381.378 -0.000907547 380.107 0.47757 378.951C0.956048 377.796 1.76649 376.808 2.80638 376.113C3.84628 375.418 5.06893 375.047 6.31966 375.047C7.99606 375.047 9.60381 375.713 10.7895 376.898C11.9752 378.083 12.6418 379.69 12.6427 381.367Z" fill="white"/>
<path d="M148.688 266.323C148.687 267.573 148.316 268.794 147.621 269.833C146.927 270.872 145.94 271.681 144.785 272.159C143.63 272.637 142.36 272.762 141.134 272.518C139.909 272.274 138.783 271.672 137.9 270.788C137.016 269.905 136.414 268.779 136.17 267.553C135.926 266.328 136.051 265.057 136.529 263.903C137.007 262.748 137.816 261.761 138.855 261.066C139.894 260.372 141.115 260.001 142.365 260C143.195 260 144.018 260.163 144.785 260.48C145.552 260.798 146.25 261.264 146.837 261.851C147.424 262.438 147.89 263.135 148.207 263.903C148.525 264.67 148.688 265.493 148.688 266.323Z" fill="white"/>
<path d="M279.191 441.638C279.19 442.888 278.819 444.109 278.124 445.148C277.429 446.187 276.442 446.996 275.287 447.474C274.132 447.952 272.862 448.076 271.636 447.832C270.41 447.588 269.285 446.986 268.401 446.102C267.518 445.218 266.916 444.092 266.672 442.866C266.429 441.64 266.554 440.37 267.033 439.215C267.511 438.061 268.321 437.074 269.36 436.38C270.399 435.685 271.621 435.315 272.871 435.315C273.701 435.315 274.523 435.478 275.29 435.796C276.057 436.114 276.754 436.58 277.341 437.167C277.928 437.754 278.393 438.451 278.711 439.218C279.028 439.985 279.191 440.808 279.191 441.638Z" fill="white"/>
</g>
<g clip-path="url(#clip1)">
<path d="M265.042 125.196C265.042 126.486 264.659 127.746 263.943 128.818C263.227 129.89 262.209 130.725 261.018 131.219C259.827 131.712 258.516 131.842 257.252 131.59C255.987 131.339 254.826 130.719 253.914 129.807C253.002 128.896 252.381 127.735 252.129 126.47C251.877 125.206 252.006 123.895 252.499 122.704C252.992 121.513 253.827 120.494 254.898 119.778C255.97 119.061 257.23 118.678 258.519 118.677C260.248 118.677 261.907 119.364 263.13 120.586C264.353 121.809 265.041 123.467 265.042 125.196Z" fill="white"/>
<path d="M405.38 6.52262C405.379 7.81167 404.996 9.07156 404.28 10.1431C403.563 11.2146 402.545 12.0496 401.354 12.5426C400.163 13.0356 398.852 13.1643 397.588 12.9127C396.324 12.661 395.162 12.0402 394.251 11.1288C393.339 10.2173 392.719 9.05599 392.467 7.79175C392.215 6.5275 392.344 5.21705 392.837 4.02599C393.33 2.83493 394.165 1.81677 395.237 1.10018C396.308 0.383589 397.568 0.000698104 398.857 0C399.714 0 400.562 0.168712 401.353 0.496503C402.145 0.824294 402.864 1.30477 403.469 1.91045C404.075 2.51613 404.555 3.23517 404.883 4.02653C405.211 4.81789 405.38 5.66606 405.38 6.52262Z" fill="white"/>
<path d="M540 187.355C540 188.644 539.618 189.905 538.902 190.977C538.186 192.049 537.168 192.884 535.977 193.378C534.786 193.871 533.475 194 532.211 193.749C530.946 193.498 529.785 192.877 528.873 191.966C527.961 191.055 527.34 189.893 527.088 188.629C526.836 187.365 526.964 186.054 527.457 184.863C527.95 183.672 528.785 182.653 529.857 181.936C530.928 181.22 532.189 180.837 533.478 180.836C534.334 180.836 535.182 181.004 535.974 181.331C536.765 181.659 537.484 182.139 538.09 182.744C538.695 183.35 539.176 184.068 539.504 184.86C539.832 185.651 540 186.499 540 187.355Z" fill="white"/>
<path d="M295.212 29.9729C295.212 29.9729 285.245 19.6949 278.475 31.5612C271.296 44.1581 303.839 53.4444 303.839 53.4444C303.839 53.4444 320.523 30.3188 311.081 21.2832C301.64 12.2476 293.441 26.0727 295.212 29.9729Z" fill="#CA3278"/>
<path d="M293.659 45.3899C290.716 46.3956 287.5 46.2391 284.669 44.9523C290.66 48.603 297.105 51.451 303.838 53.4231C303.838 53.4231 320.522 30.2976 311.081 21.262C310.674 20.8738 310.243 20.5108 309.792 20.1749C309.189 34.5613 303.968 41.7192 293.659 45.3899Z" fill="#AA2B6B"/>
<path d="M304.632 54.3197C304.484 54.452 304.304 54.5448 304.111 54.5892C303.917 54.6336 303.715 54.6283 303.524 54.5738C302.599 54.3091 280.85 48.0088 276.901 38.3379C276.403 37.1582 276.194 35.8769 276.29 34.6002C276.387 33.3235 276.786 32.0882 277.455 30.9965C278.254 29.5384 279.284 28.219 280.504 27.0893C282.406 25.5309 284.8 24.7012 287.258 24.749C289.717 24.7969 292.077 25.7192 293.916 27.3505C294.562 24.4107 296.111 21.7464 298.346 19.7302C299.254 18.8338 300.339 18.1366 301.531 17.683C302.724 17.2294 303.997 17.0295 305.271 17.0959C306.546 17.1623 307.792 17.4937 308.931 18.0688C310.069 18.6439 311.076 19.4502 311.885 20.4361C321.955 30.0753 305.493 53.162 304.784 54.1397C304.74 54.205 304.689 54.2653 304.632 54.3197ZM282.082 28.8293C281.053 29.7909 280.184 30.911 279.509 32.1471C279.017 32.9303 278.722 33.8206 278.648 34.7424C278.575 35.6641 278.724 36.59 279.085 37.4414C282.213 45.1005 299.423 50.836 303.365 52.0608C305.966 48.2383 318.009 29.5352 310.272 22.1303C309.677 21.35 308.921 20.7066 308.055 20.2435C307.19 19.7804 306.235 19.5084 305.256 19.4458C304.276 19.3833 303.294 19.5316 302.377 19.8808C301.46 20.2301 300.628 20.7721 299.938 21.4702C298.737 22.4206 297.78 23.6435 297.146 25.0374C296.512 26.4313 296.219 27.9562 296.292 29.4858C296.408 29.7388 296.43 30.0246 296.356 30.2927C296.281 30.5608 296.114 30.7938 295.884 30.9506C295.654 31.1073 295.376 31.1777 295.1 31.1493C294.823 31.1209 294.565 30.9955 294.372 30.7953C294.089 30.5129 287.553 23.9374 282.075 28.8293H282.082Z" fill="#5C1D43"/>
<path d="M407.247 358.961C474.102 358.961 528.299 354.579 528.299 349.174C528.299 343.769 474.102 339.387 407.247 339.387C340.391 339.387 286.194 343.769 286.194 349.174C286.194 354.579 340.391 358.961 407.247 358.961Z" fill="#648BB7"/>
<path d="M339.352 193.581C339.352 193.581 331.457 195.512 332.561 198.223C333.87 200.417 335.672 202.277 337.824 203.655C337.824 203.655 319.629 240.252 315.588 261.715C311.546 283.179 305.822 340.47 347.124 344.43C362.834 352.58 370.176 358.383 380.771 354.835C384.56 354.649 388.224 353.422 391.36 351.288C392.683 350.706 393.905 349.919 394.981 348.955C394.981 348.955 397.138 353.865 400.523 353.572C402.478 355.011 404.866 355.74 407.292 355.637C407.292 355.637 411.951 362.177 416.946 359.95C421.94 357.723 433.912 352.266 433.912 352.266C433.912 352.266 448.433 344.254 452.809 345.447C457.186 346.64 482.457 350.713 499.689 343.439C516.92 336.164 517.989 327.203 520.04 320.144C522.091 313.084 515.833 281.629 507.732 270.818C499.632 260.007 488.32 248.42 481.706 251.949C475.091 255.479 476.023 264.776 480.05 269.918C484.077 275.061 498.312 287.686 499.371 298.154C500.43 308.623 502.346 323.691 494.077 326.716C485.807 329.74 474.682 332.335 466.871 328.127C470.916 312.188 472.306 309.047 469.758 290.27C467.21 271.492 454.15 236.864 451.549 227.97C448.948 219.075 446.961 212.221 446.961 212.221C446.961 212.221 449.548 205.98 447.829 206.185C453.685 205.335 485.02 201.117 489.478 192.833C487.757 191.875 485.944 191.091 484.067 190.493C484.067 190.493 496.816 183.434 498.852 179.777C495.922 179.012 492.908 178.61 489.88 178.581C497.008 171.194 502.051 162.051 504.496 152.081C504.972 149.057 505.936 146.13 507.351 143.416C507.351 143.416 512.123 138.076 512.211 135.365C512.3 132.654 504.799 133.713 504.799 133.713C507.266 119.572 508.866 105.293 509.593 90.9563C510.69 67.9896 512.871 60.6375 494.55 62.5682C476.228 64.4989 469.028 65.5754 469.028 65.5754C469.028 65.5754 446.608 48.6865 427.026 46.0217C423.165 37.0355 422.833 30.9118 421.026 32.8954C419.124 36.7672 417.721 40.8648 416.85 45.0899C416.85 45.0899 408.379 33.3648 406.378 31.2965C404.377 29.2282 403.667 35.0095 408.951 47.8324C406.608 48.5736 391.445 46.2511 391.445 46.2511C391.445 46.2511 356.675 23.3938 347.35 23.2632C338.025 23.1326 338 19.3808 328.996 39.0756C322.847 53.4841 318.086 68.4465 314.779 83.7596C314.779 83.7596 310.996 79.8771 308.147 83.5866C305.299 87.2962 308.762 94.4929 308.762 94.4929C308.762 94.4929 296.274 128.239 308.532 151.23C305.203 150.784 301.977 149.758 299.002 148.198C299.002 148.198 300.241 155.963 304.671 158.985C302.832 159.532 300.921 159.796 299.002 159.768C299.002 159.768 323.427 187.945 339.352 193.581Z" fill="#C8B7C6"/>
<path d="M405.139 74.9004C405.139 74.9004 377.817 82.8101 376.264 95.0188C375.777 96.6767 375.821 98.4456 376.391 100.077C376.961 101.708 378.027 103.12 379.441 104.114C388.755 109.193 402.15 108.632 410.12 93.6493C412.047 103.938 417.782 123.883 433.767 120.167C449.753 116.45 440.872 71.2332 405.139 74.9004Z" fill="white"/>
<g opacity="0.5">
<path opacity="0.5" d="M484.992 262.361C482.02 257.162 487.925 255.948 494.102 255.952C489.45 252.172 484.989 250.177 481.695 251.935C475.078 255.465 476.013 264.762 480.04 269.904C484.067 275.047 498.302 287.672 499.361 298.14C500.42 308.609 502.336 323.677 494.067 326.701C485.797 329.726 474.672 332.32 466.861 328.113C469.737 316.787 471.269 311.92 471.001 303.311C470.188 305.037 469.465 306.805 468.834 308.605C464.831 319.639 448.652 338.96 435.458 351.415C439.316 349.4 449.301 344.469 452.803 345.415C460.564 347.06 468.491 347.796 476.422 347.61C475.459 343.548 476.355 337.287 489.782 335.285C510.221 332.236 513.355 315.714 509.999 294.928C506.642 274.143 490.583 272.131 484.992 262.361Z" fill="#5C1D43"/>
<path opacity="0.5" d="M348.967 344.402C332.078 334.957 314.773 288.36 312.966 283.415C311.635 308.733 316.241 341.469 347.107 344.43C357.766 349.958 364.575 354.405 371.158 355.584C365.154 352.859 357.297 349.061 348.967 344.402Z" fill="#5C1D43"/>
</g>
<path d="M383.115 107.665C384.8 110.905 386.126 114.318 387.072 117.844C387.192 120.315 393.167 117.844 393.167 117.844C393.167 117.844 410.815 117.717 413.953 128.041L422.734 118.533C422.734 118.533 415.767 114.795 414.182 110.143C412.904 104.345 412.116 98.45 411.828 92.5199C409.092 96.9519 405.732 100.966 401.85 104.439C396.165 107.644 389.545 108.784 383.115 107.665Z" fill="#5C1D43"/>
<path d="M387.086 120.647C392.128 118.699 397.617 118.209 402.923 119.235C410.152 121.264 414.952 127.939 414.183 130.035C413.413 132.132 407.212 143.606 399.849 143.448C392.487 143.289 387.118 140.426 387.086 135.061C387.055 129.697 387.086 120.647 387.086 120.647Z" fill="#CA3278"/>
<path d="M367.984 50.409C367.984 50.409 343.729 34.7943 341.159 34.9496C338.59 35.1049 329.914 52.989 328.742 67.4813C332.463 66.8919 336.08 60.6129 337.736 60.8988C340.27 60.9515 342.805 60.8098 345.317 60.4752L367.984 50.409Z" fill="#E5BE79"/>
<path d="M475.815 76.3758C475.815 76.3758 499.131 70.0226 499.738 71.9356C500.345 73.8486 502.05 95.5306 500.179 102.413C500.179 102.413 498.714 93.3987 496.268 93.8082C493.822 94.2176 492.104 90.1057 491.74 88.6974C491.376 87.2891 482.634 87.1656 475.815 76.3758Z" fill="#E5BE79"/>
<path opacity="0.5" d="M402.923 119.235C397.616 118.209 392.128 118.699 387.086 120.647C387.086 120.647 387.086 124.921 387.086 129.337C393.224 126.721 401.885 123.936 403.721 128.052C405.934 132.993 399.662 139.735 390.344 140.935C393.221 142.649 396.525 143.515 399.873 143.433C407.236 143.603 413.434 132.139 414.207 130.021C414.98 127.904 410.166 121.25 402.923 119.235Z" fill="#5C1D43"/>
<path opacity="0.5" d="M443.167 207.498C444.881 207.329 446.563 206.912 448.157 206.259C448.062 206.199 447.948 206.175 447.836 206.192L448.694 206.069C453.808 204.24 479.517 199.257 489.485 192.84C494.779 189.431 481.84 191.259 487.695 188.389C491.882 186.181 495.658 183.27 498.859 179.784C495.929 179.019 492.916 178.617 489.887 178.588C489.887 178.588 490.777 177.723 492.121 176.145C481.473 178.704 466.762 182.643 446.442 188.654C395.377 203.757 334.012 179.149 302.052 163.188C309.111 170.862 326.854 189.159 339.352 193.581C339.352 193.581 338.915 193.687 338.262 193.885C352.764 198.473 367.077 202.395 367.077 202.395C368.82 206.558 371.084 210.483 373.815 214.077C378.925 221.203 422.921 216.901 425.173 213.516C427.425 210.131 435.116 207.283 443.167 207.498Z" fill="#5C1D43"/>
<path d="M370.56 201.943C370.56 201.943 378.724 213.04 390.721 209.072C402.718 205.105 403.992 211.543 410.688 213.516C417.383 215.489 425.812 207.498 425.812 207.498H430.418C430.418 207.498 427.707 264.19 420.405 287.7C413.102 311.21 410.427 321.619 401.133 329.349L400.018 336.454L394.858 345.454L388.857 323.878C388.857 323.878 369.251 313.667 364.994 292.239C360.738 270.811 355.524 240.355 370.56 201.943Z" fill="white"/>
<path d="M476.723 77.6782C460.568 53.3596 427.009 46.0287 427.009 46.0287C425.245 41.5492 423.242 37.1675 421.009 32.9024C419.322 30.4317 416.833 45.097 416.833 45.097C413.014 39.545 408.841 34.2456 404.339 29.2317C401.575 27.114 409.358 49.0465 409.358 49.0465L400.587 47.5712C374.331 42.3934 345.297 60.4928 345.297 60.4928" stroke="#5C1D43" stroke-width="3.41307" stroke-linecap="round" stroke-linejoin="round"/>
<path d="M465.932 66.1013C465.932 66.1013 501.556 59.7763 507.305 64.0647C513.055 68.3531 507.552 125.899 504.799 133.72C504.799 133.72 512.102 132.598 512.211 135.372C512.321 138.146 506.028 144.919 506.028 144.919C506.028 144.919 502.996 167.057 489.88 178.588L499.678 178.803C495.495 183.905 490.139 187.919 484.067 190.5L490.42 192.173C490.42 192.173 470.838 207.572 425.812 207.498" stroke="#5C1D43" stroke-width="3.41307" stroke-linecap="round" stroke-linejoin="round"/>
<path d="M389.984 46.0288C389.984 46.0288 348.953 19.1301 339.353 22.3808C329.752 25.6316 314.752 83.7772 314.752 83.7772C314.752 83.7772 308.921 79.7006 307.135 85.542C306.584 88.6265 307.151 91.8066 308.734 94.5106C308.734 94.5106 294.52 133.053 310.121 153.609L298.985 148.205C299.162 150.669 299.931 153.054 301.227 155.157C302.523 157.259 304.308 159.018 306.429 160.284L298.985 159.775C317.377 183.502 344.212 199.22 373.903 203.655" stroke="#5C1D43" stroke-width="3.41307" stroke-linecap="round" stroke-linejoin="round"/>
<path d="M339.352 62.5753C339.035 62.1877 338.615 61.8977 338.14 61.7389C337.665 61.5801 337.155 61.5589 336.668 61.6778C336.182 61.7966 335.739 62.0507 335.39 62.4106C335.042 62.7706 334.803 63.2217 334.7 63.7118C334.194 64.9083 333.41 65.9671 332.413 66.8006C331.416 67.6341 330.236 68.2183 328.968 68.5049C328.968 68.5049 335.353 32.4718 340.633 34.7413C345.071 36.9144 349.315 39.4626 353.319 42.3581" stroke="#5C1D43" stroke-width="2.3895" stroke-linecap="round" stroke-linejoin="round"/>
<path d="M487.145 74.6357C487.145 74.6357 498.15 72.2427 500.092 73.2239C502.033 74.2051 503.007 98.0718 500.092 106.373C500.092 106.373 501.101 93.7658 496.873 93.5329C492.644 93.2999 489.888 90.5893 491.751 88.708" stroke="#5C1D43" stroke-width="2.3895" stroke-linecap="round" stroke-linejoin="round"/>
<path d="M339.353 193.581C339.353 193.581 331.81 193.694 332.562 198.223C332.817 199.541 333.45 200.757 334.385 201.722C335.319 202.687 336.515 203.358 337.825 203.655C337.825 203.655 311.777 251.303 312.85 293.806C314.205 347.667 348.967 344.402 348.967 344.402" stroke="#5C1D43" stroke-width="3.41307" stroke-linecap="round" stroke-linejoin="round"/>
<path d="M337.768 336.471C337.768 336.471 364.97 357.373 374.991 356.138C385.011 354.902 382.378 352.827 380.5 347.543" stroke="#5C1D43" stroke-width="3.41307" stroke-linecap="round" stroke-linejoin="round"/>
<path d="M382.487 354.902C382.487 354.902 393.951 355.337 390.658 347.667" stroke="#5C1D43" stroke-width="3.41307" stroke-linecap="round" stroke-linejoin="round"/>
<path d="M389.341 321.887C389.341 321.887 391.307 338.314 393.668 342.874C396.03 347.434 396.45 349.453 391.371 351.288" stroke="#5C1D43" stroke-width="3.41307" stroke-linecap="round" stroke-linejoin="round"/>
<path d="M400.936 325.187C400.936 325.187 402.203 334.717 398.339 339.616C394.474 344.515 395.536 354.518 400.52 353.572" stroke="#5C1D43" stroke-width="3.41307" stroke-linecap="round" stroke-linejoin="round"/>
<path d="M401.134 346.075C401.134 346.075 396.45 358.323 407.289 355.637" stroke="#5C1D43" stroke-width="3.41307" stroke-linecap="round" stroke-linejoin="round"/>
<path d="M453.579 330.94C445.128 342.088 434.32 351.233 421.927 357.723C405.712 365.318 407.279 351.048 407.279 351.048" stroke="#5C1D43" stroke-width="3.41307" stroke-linecap="round" stroke-linejoin="round"/>
<path d="M430.418 352.919C474.372 345.75 476.451 307.998 465.922 274.965C455.393 241.932 446.968 212.228 446.968 212.228C449.866 208.751 446.968 207.498 446.968 207.498" stroke="#5C1D43" stroke-width="3.41307" stroke-linecap="round" stroke-linejoin="round"/>
<path d="M380.479 234.164C380.479 234.164 373.977 238.696 375.019 245.173C376.06 251.649 384.923 241.996 384.923 241.996C384.923 241.996 383.864 250.386 387.418 251.021C390.972 251.656 394.431 241.996 394.431 241.996C394.907 242.696 395.519 243.293 396.229 243.753C396.939 244.213 397.734 244.527 398.567 244.675C399.401 244.824 400.255 244.805 401.081 244.619C401.906 244.432 402.686 244.083 403.375 243.591C408.669 240.012 405.722 237.799 405.722 237.799" stroke="#5C1D43" stroke-width="2.3895" stroke-linecap="round" stroke-linejoin="round"/>
<path d="M330.148 221.059C335.95 225.583 342.697 228.742 349.888 230.303C349.888 230.303 341.096 237.076 325.534 234.164L330.148 221.059Z" fill="#5C1D43"/>
<path d="M319.703 248.536C326.207 252.578 333.711 254.722 341.368 254.727C341.368 254.727 336.702 264.927 315.577 265.252L319.703 248.536Z" fill="#5C1D43"/>
<path d="M452.669 234.891C446.568 236.771 440.042 236.771 433.941 234.891C433.941 234.891 438.861 249.249 456.848 247.696L452.669 234.891Z" fill="#5C1D43"/>
<path d="M461.538 262.644C461.538 261.08 454.8 267.052 438.745 259.513C438.745 259.513 438.392 275.477 466.864 282.102L461.538 262.644Z" fill="#5C1D43"/>
<path d="M385.784 47.5853C385.784 47.5853 399.143 66.1613 399.051 65.4412C398.96 64.7212 397.177 46.6253 397.177 46.6253C397.177 46.6253 388.706 45.3017 385.784 47.5853Z" fill="#5C1D43"/>
<path d="M429.663 46.8194L425.173 62.5753L442.412 51.7713C442.412 51.7713 432.317 47.61 429.663 46.8194Z" fill="#5C1D43"/>
<path d="M307.022 99.9143C307.082 99.7131 320.695 100.797 320.695 100.797L304.632 109.804C304.632 109.804 306.309 102.293 307.022 99.9143Z" fill="#5C1D43"/>
<path d="M304.632 115.353C302.478 119.415 301.83 124.108 302.804 128.602L328.711 116.217L304.632 115.353Z" fill="#5C1D43"/>
<path d="M505.17 149.391L494.409 143.423L501.644 160.749L505.17 149.391Z" fill="#5C1D43"/>
<path d="M499.749 165.825L484.999 153.86L492.647 175.863C492.647 175.863 498.107 168.063 499.749 165.825Z" fill="#5C1D43"/>
<path d="M361.229 351.214L373.812 341.074L355.313 348.426L361.229 351.214Z" fill="#5C1D43"/>
<path d="M389.984 326.719C388.127 326.444 370.571 333.905 370.571 333.905C370.571 333.905 390.937 334.964 390.969 333.905C391 332.846 389.984 326.719 389.984 326.719Z" fill="#5C1D43"/>
<path d="M401.133 332.381L410.137 337.887L398.966 338.698L401.133 332.381Z" fill="#5C1D43"/>
<path d="M446.442 339.291C446.502 339.228 421.383 331.262 421.383 331.262L436.849 347.769L446.442 339.291Z" fill="#5C1D43"/>
<path d="M466.864 328.134C466.864 328.134 494.648 336.044 498.679 319.766C502.71 303.488 500.123 293.09 489.132 280.821C478.141 268.552 473.535 262.665 478.07 254.727C482.606 246.789 502.357 253.146 513.856 283.81C525.355 314.475 519.885 333.669 505.131 341.074C490.378 348.479 474.707 348.02 450.48 346.146" stroke="#5C1D43" stroke-width="3.41307" stroke-linecap="round" stroke-linejoin="round"/>
<path d="M484.071 275.047L499.689 268.055L489.132 280.821L484.071 275.047Z" fill="#5C1D43"/>
<path d="M510.243 274.436L499.686 287.7L514.605 285.879L510.243 274.436Z" fill="#5C1D43"/>
<path d="M500.43 308.63L512.222 311.362L499.548 315.799L500.43 308.63Z" fill="#5C1D43"/>
<path d="M517.002 328.325L503.007 323.871L512.717 335.314L517.002 328.325Z" fill="#5C1D43"/>
<path d="M489.613 328.586L489.888 339.291L483.101 330.545L489.613 328.586Z" fill="#5C1D43"/>
<path d="M481.632 346.075L477.1 332.599L474.185 347.318C474.185 347.318 482.521 348.768 481.632 346.075Z" fill="#5C1D43"/>
<path d="M380.01 90.2681C380.01 90.2681 394.128 69.299 417.317 76.1146C440.506 82.9301 441.371 102.413 441.371 102.413" stroke="#5C1D43" stroke-width="2.3895" stroke-linecap="round" stroke-linejoin="round"/>
<path d="M400.417 75.9805C400.417 75.9805 416.053 72.2991 425.477 78.5323C434.901 84.7655 419.364 91.7257 413.42 90.5998C407.476 89.4739 397.632 79.3124 400.417 75.9805Z" fill="#5C1D43"/>
<path d="M374.835 100.85C374.835 100.85 397.071 124.572 412.513 88.6974C412.513 88.6974 404.395 119.867 433.793 120.181" stroke="#5C1D43" stroke-width="2.3895" stroke-linecap="round" stroke-linejoin="round"/>
<path d="M391.431 93.1164C391.431 93.1164 360.893 75.6028 326.378 79.9124" stroke="#5C1D43" stroke-width="2.3895" stroke-linecap="round" stroke-linejoin="round"/>
<path d="M385.106 97.1048C367.738 92.6243 349.422 93.4853 332.551 99.5755" stroke="#5C1D43" stroke-width="2.3895" stroke-linecap="round" stroke-linejoin="round"/>
<path d="M387.072 101.566C387.072 101.566 364.158 100.603 348.896 110.874" stroke="#5C1D43" stroke-width="2.3895" stroke-linecap="round" stroke-linejoin="round"/>
<path d="M432.631 105.036C432.631 105.036 463.321 101.054 487.145 121.519" stroke="#5C1D43" stroke-width="2.3895" stroke-linecap="round" stroke-linejoin="round"/>
<path d="M432.101 109.804C432.101 109.804 458.192 112.052 471.209 122.263" stroke="#5C1D43" stroke-width="2.3895" stroke-linecap="round" stroke-linejoin="round"/>
<path d="M433.327 116.207C437.28 116.815 441.066 118.228 444.451 120.359C447.836 122.489 450.748 125.291 453.007 128.592" stroke="#5C1D43" stroke-width="2.3895" stroke-linecap="round" stroke-linejoin="round"/>
<path d="M378.809 104.496C378.809 104.496 386.574 107.711 387.072 120.181C387.57 132.651 385.738 142.918 397.844 143.423C408.694 143.878 410.303 137.356 415.778 126.887C421.252 116.418 425.812 119.15 425.812 119.15" stroke="#5C1D43" stroke-width="2.3895" stroke-linecap="round" stroke-linejoin="round"/>
<path d="M380.01 147.2C384.033 150.999 389.053 153.576 394.485 154.63C399.917 155.683 405.537 155.17 410.689 153.15" stroke="#5C1D43" stroke-width="2.3895" stroke-linecap="round" stroke-linejoin="round"/>
<path d="M387.072 120.181C387.072 120.181 407.148 111.156 414.183 128.592" stroke="#5C1D43" stroke-width="2.3895" stroke-linecap="round" stroke-linejoin="round"/>
<path d="M383.176 69.9026C383.176 69.9026 367.053 62.6741 363.195 63.6623C359.337 64.6506 359.503 68.826 370.191 70.4461C380.878 72.0662 386.794 72.8956 383.176 69.9026Z" fill="#5C1D43"/>
<path d="M383.239 70.0226C383.239 70.0226 365.944 66.4472 362.379 68.2578C358.814 70.0685 359.887 74.0957 370.673 73.3686C381.46 72.6415 387.418 72.1615 383.239 70.0226Z" fill="#5C1D43"/>
<path d="M447.413 83.5866C447.413 83.5866 464.75 86.9997 467.327 90.0316C469.903 93.0635 467.362 96.3847 457.702 91.5281C448.041 86.6714 442.73 83.9396 447.413 83.5866Z" fill="#5C1D43"/>
<path d="M447.293 83.6607C447.293 83.6607 463.483 90.7198 465.346 94.2494C467.21 97.7789 464.009 100.451 455.623 93.6317C447.236 86.8126 442.637 82.9936 447.293 83.6607Z" fill="#5C1D43"/>
<path d="M425.576 81.6207C425.399 82.0336 423.412 81.5677 421.139 80.5795C418.866 79.5912 417.172 78.4617 417.352 78.0452C417.532 77.6288 419.515 78.0982 421.788 79.1041C424.061 80.11 425.756 81.2112 425.576 81.6207Z" fill="white"/>
</g>
<defs>
<clipPath id="clip0">
<rect y="260" width="289" height="313.854" fill="white"/>
</clipPath>
<clipPath id="clip1">
<rect x="252" width="288" height="361.707" fill="white"/>
</clipPath>
</defs>
</svg>
