<svg width="400" height="381" viewBox="0 0 400 381" fill="none" xmlns="http://www.w3.org/2000/svg">
<g clip-path="url(#clip0)">
<path d="M400 74.8502V45.5322C390.892 43.4405 382.319 39.4792 374.822 33.8993C367.326 28.3195 361.071 21.2429 356.454 13.1182L356.454 13.1188C354.239 14.7611 351.553 15.645 348.796 15.6391H325.516C331.728 31.1221 341.861 44.7224 354.92 55.1037C367.98 65.485 383.515 72.2901 400 74.8502Z" fill="#E6E6E6"/>
<path d="M400 43.852V15.6876C400.001 13.6273 399.595 11.5871 398.807 9.68348C398.019 7.77989 396.864 6.05025 395.407 4.5934C393.95 3.13654 392.22 1.98102 390.317 1.19287C388.413 0.404715 386.373 -0.000627621 384.313 7.29419e-07H361.71V2.71962C361.712 4.4639 361.361 6.19048 360.676 7.79466C359.991 9.39884 358.987 10.8472 357.726 12.0519C362.191 19.9866 368.254 26.9093 375.53 32.3827C382.806 37.8561 391.138 41.7614 400 43.852Z" fill="#E6E6E6"/>
<path d="M291.275 15.6391H276.718C273.292 15.6381 270.007 14.2765 267.585 11.8537C265.163 9.43085 263.803 6.14529 263.803 2.71962V5.68672e-08H242.596C240.536 -0.00017536 238.496 0.405478 236.592 1.19379C234.689 1.98211 232.959 3.13764 231.503 4.59441C230.046 6.05117 228.89 7.78063 228.102 9.68401C227.314 11.5874 226.908 13.6274 226.908 15.6876V364.768C226.906 366.828 227.31 368.869 228.098 370.772C228.886 372.676 230.041 374.405 231.499 375.862C232.956 377.318 234.686 378.473 236.591 379.259C238.495 380.045 240.536 380.448 242.596 380.445H384.312C384.958 380.446 385.604 380.407 386.245 380.326C390.04 379.853 393.531 378.011 396.063 375.147C398.596 372.282 399.995 368.592 400 364.768V107.793C348.457 101.82 305.509 65.0439 291.275 15.6391Z" fill="#E6E6E6"/>
<path d="M323.749 15.6392H292.977C307.141 64.1284 349.351 100.205 400 106.15V76.5197C383.074 73.9318 367.124 66.9471 353.743 56.2636C340.363 45.5801 330.02 31.572 323.749 15.6392Z" fill="#E6E6E6"/>
<path d="M240.568 130.225C239.997 130.225 239.449 130.452 239.045 130.856C238.641 131.26 238.414 131.808 238.414 132.379V168.448C238.414 169.019 238.641 169.566 239.045 169.97C239.449 170.374 239.997 170.601 240.568 170.602H385.973C386.544 170.601 387.092 170.374 387.496 169.97C387.899 169.566 388.126 169.019 388.127 168.448V132.379C388.126 131.808 387.899 131.26 387.496 130.856C387.092 130.452 386.544 130.225 385.973 130.225H240.568Z" fill="white"/>
<path d="M259.417 161.722C265.663 161.722 270.726 156.659 270.726 150.413C270.726 144.167 265.663 139.104 259.417 139.104C253.171 139.104 248.107 144.167 248.107 150.413C248.107 156.659 253.171 161.722 259.417 161.722Z" fill="#3D5643"/>
<path d="M285.536 142.874C285.036 142.874 284.556 143.072 284.203 143.426C283.849 143.779 283.651 144.259 283.651 144.759C283.651 145.258 283.849 145.738 284.203 146.091C284.556 146.445 285.036 146.643 285.536 146.643H374.395C374.894 146.643 375.374 146.445 375.727 146.091C376.081 145.738 376.279 145.258 376.279 144.759C376.279 144.259 376.081 143.779 375.727 143.426C375.374 143.072 374.894 142.874 374.395 142.874H285.536Z" fill="#E6E6E6"/>
<path d="M285.536 154.183C285.036 154.183 284.556 154.382 284.203 154.735C283.849 155.088 283.651 155.568 283.651 156.068C283.651 156.568 283.849 157.047 284.203 157.401C284.556 157.754 285.036 157.953 285.536 157.953H374.395C374.894 157.953 375.374 157.754 375.727 157.401C376.081 157.047 376.279 156.568 376.279 156.068C376.279 155.568 376.081 155.088 375.727 154.735C375.374 154.382 374.894 154.183 374.395 154.183H285.536Z" fill="#E6E6E6"/>
<path d="M240.568 192.156C239.997 192.157 239.449 192.384 239.045 192.788C238.641 193.192 238.414 193.739 238.414 194.311V230.379C238.414 230.951 238.641 231.498 239.045 231.902C239.449 232.306 239.997 232.533 240.568 232.534H385.973C386.544 232.533 387.092 232.306 387.496 231.902C387.899 231.498 388.126 230.951 388.127 230.379V194.311C388.126 193.739 387.899 193.192 387.496 192.788C387.092 192.384 386.544 192.157 385.973 192.156H240.568Z" fill="white"/>
<path d="M259.417 223.654C265.663 223.654 270.726 218.591 270.726 212.345C270.726 206.099 265.663 201.036 259.417 201.036C253.171 201.036 248.107 206.099 248.107 212.345C248.107 218.591 253.171 223.654 259.417 223.654Z" fill="#3D5643"/>
<path d="M285.536 204.806C285.036 204.806 284.556 205.004 284.203 205.358C283.849 205.711 283.651 206.191 283.651 206.69C283.651 207.19 283.849 207.67 284.203 208.023C284.556 208.377 285.036 208.575 285.536 208.575H374.395C374.894 208.575 375.374 208.377 375.727 208.023C376.081 207.67 376.279 207.19 376.279 206.69C376.279 206.191 376.081 205.711 375.727 205.358C375.374 205.004 374.894 204.806 374.395 204.806H285.536Z" fill="#E6E6E6"/>
<path d="M285.536 216.115C285.036 216.115 284.556 216.313 284.203 216.667C283.849 217.02 283.651 217.5 283.651 218C283.651 218.5 283.849 218.979 284.203 219.333C284.556 219.686 285.036 219.885 285.536 219.885H374.395C374.894 219.885 375.374 219.686 375.727 219.333C376.081 218.979 376.279 218.5 376.279 218C376.279 217.5 376.081 217.02 375.727 216.667C375.374 216.313 374.894 216.115 374.395 216.115H285.536Z" fill="#E6E6E6"/>
<path d="M240.568 254.088C239.997 254.089 239.449 254.316 239.045 254.72C238.641 255.124 238.414 255.671 238.414 256.242V292.311C238.414 292.882 238.641 293.43 239.045 293.834C239.449 294.238 239.997 294.465 240.568 294.466H385.973C386.544 294.465 387.092 294.238 387.496 293.834C387.899 293.43 388.126 292.882 388.127 292.311V256.242C388.126 255.671 387.899 255.124 387.496 254.72C387.092 254.316 386.544 254.089 385.973 254.088H240.568Z" fill="white"/>
<path d="M259.417 285.586C265.663 285.586 270.726 280.523 270.726 274.277C270.726 268.031 265.663 262.968 259.417 262.968C253.171 262.968 248.107 268.031 248.107 274.277C248.107 280.523 253.171 285.586 259.417 285.586Z" fill="#3D5643"/>
<path d="M285.536 266.737C285.036 266.737 284.556 266.936 284.203 267.289C283.849 267.643 283.651 268.122 283.651 268.622C283.651 269.122 283.849 269.602 284.203 269.955C284.556 270.309 285.036 270.507 285.536 270.507H374.395C374.894 270.507 375.374 270.309 375.727 269.955C376.081 269.602 376.279 269.122 376.279 268.622C376.279 268.122 376.081 267.643 375.727 267.289C375.374 266.936 374.894 266.737 374.395 266.737H285.536Z" fill="#E6E6E6"/>
<path d="M285.536 278.047C285.036 278.047 284.556 278.245 284.203 278.599C283.849 278.952 283.651 279.432 283.651 279.932C283.651 280.431 283.849 280.911 284.203 281.264C284.556 281.618 285.036 281.816 285.536 281.816H374.395C374.894 281.816 375.374 281.618 375.727 281.264C376.081 280.911 376.279 280.431 376.279 279.932C376.279 279.432 376.081 278.952 375.727 278.599C375.374 278.245 374.894 278.047 374.395 278.047H285.536Z" fill="#E6E6E6"/>
<path d="M313.27 367.444C328.141 367.444 340.197 355.388 340.197 340.517C340.197 325.646 328.141 313.59 313.27 313.59C298.399 313.59 286.343 325.646 286.343 340.517C286.343 355.388 298.399 367.444 313.27 367.444Z" fill="#9BD88C"/>
<path d="M329.427 340.517H314.886V325.976H311.655V340.517H297.114V343.748H311.655V358.289H314.886V343.748H329.427V340.517Z" fill="white"/>
<path d="M58.2683 349.078L59.129 355.412C59.129 355.412 81.0223 362.896 76.7443 366.323C72.4664 369.751 37.8744 369.912 37.1539 367.961C36.4334 366.01 36.2733 357.569 38.2247 356.848C40.176 356.128 43.7835 348.883 43.7835 348.883L58.2683 349.078Z" fill="#282936"/>
<path d="M80.3591 219.047L66.6312 304.357L60.2576 354.856L39.6655 353.875L46.5292 270.037L64.1798 222.479L80.3591 219.047Z" fill="#282936"/>
<path d="M95.0677 219.047L97.0288 226.892C97.0288 226.892 104.383 247.484 98.0093 246.503C91.6356 245.523 88.6939 227.872 88.6939 227.872L87.7134 221.499L95.0677 219.047Z" fill="#FFB6B6"/>
<path d="M31.3306 216.106L46.5294 283.274L65.1602 362.21L82.8104 355.837L70.063 292.1C70.063 292.1 72.0242 278.372 70.063 271.508C68.1019 264.644 68.1019 234.736 68.1019 234.736L82.8104 221.989V197.488L44.078 194.043L31.3306 216.106Z" fill="#282936"/>
<path d="M82.8538 354.265L83.801 360.587C83.801 360.587 105.795 367.77 101.564 371.256C97.3334 374.742 62.7469 375.377 61.9997 373.435C61.2526 371.494 60.977 363.056 62.9183 362.309C64.8596 361.562 68.3676 354.268 68.3676 354.268L82.8538 354.265Z" fill="#282936"/>
<path d="M90.8999 119.765C99.0232 119.765 105.608 113.179 105.608 105.056C105.608 96.9329 99.0232 90.3477 90.8999 90.3477C82.7766 90.3477 76.1914 96.9329 76.1914 105.056C76.1914 113.179 82.7766 119.765 90.8999 119.765Z" fill="#FFB6B6"/>
<path d="M81.0947 103.095L64.4248 111.92L70.7984 132.512H77.6626L81.5848 127.609L80.114 124.668L91.8805 115.842L81.0947 103.095Z" fill="#FFB6B6"/>
<path d="M75.701 130.551L75.4559 122.461L68.7597 109.625L43.5874 120.01L52.4124 199.926L82.8102 201.887L81.8295 168.058L86.7324 131.286L85.0166 120.745L75.701 130.551Z" fill="#9BD88C"/>
<path d="M77.6623 169.774L65.8562 110.823C65.8562 110.823 38.9299 116.333 36.4785 120.255C34.0271 124.177 30.5951 203.603 30.5951 203.603C30.5951 203.603 25.6922 219.292 30.5951 219.292C35.4979 219.292 55.1093 205.074 56.0898 210.467C57.0704 215.86 58.051 218.802 64.915 217.331C71.7789 215.86 76.1915 204.094 76.1915 204.094C76.1915 204.094 74.7206 227.627 77.6623 227.627C80.6041 227.627 85.0166 229.098 85.0166 226.647V174.186L96.7834 131.532L85.141 120.838L80.1138 124.668L77.6623 169.774Z" fill="#282936"/>
<path d="M93.5968 132.757L97.0288 131.777C97.0288 131.777 98.0094 138.641 98.0094 140.112C98.0094 141.582 95.0677 170.509 95.0677 170.509L97.5191 220.028L86.2425 224.931L82.8105 169.038L93.5968 132.757Z" fill="#282936"/>
<path d="M76.1916 106.527C76.1916 106.527 70.3082 89.8574 83.5458 85.9351C96.7835 82.0128 102.667 86.4254 104.628 88.8768C106.683 91.445 116.395 104.076 110.511 107.017C104.628 109.959 101.931 106.282 101.931 104.811C101.931 103.34 93.1064 104.811 89.1841 106.282C88.1201 106.724 86.9494 106.844 85.8178 106.626C84.6862 106.408 83.6438 105.862 82.8202 105.056C82.8202 105.056 81.8298 100.398 78.8881 102.85C75.9464 105.301 76.1916 106.527 76.1916 106.527Z" fill="#282936"/>
<path d="M120.86 231.418C120.6 230.91 120.148 230.526 119.605 230.35C119.061 230.174 118.47 230.221 117.962 230.481L85.8432 246.893C85.3349 247.154 84.9506 247.605 84.7747 248.148C84.5988 248.692 84.6457 249.283 84.905 249.792L151.07 379.271C151.33 379.779 151.782 380.164 152.325 380.339C152.869 380.515 153.46 380.468 153.969 380.209L186.087 363.796C186.595 363.536 186.979 363.084 187.155 362.541C187.331 361.998 187.284 361.407 187.025 360.898L120.86 231.418Z" fill="#E6E6E6"/>
<path d="M111.46 268.699C117.706 268.699 122.769 263.635 122.769 257.389C122.769 251.144 117.706 246.08 111.46 246.08C105.214 246.08 100.15 251.144 100.15 257.389C100.15 263.635 105.214 268.699 111.46 268.699Z" fill="#9BD88C"/>
<path d="M130.058 277.217C129.831 276.772 129.436 276.435 128.96 276.281C128.485 276.127 127.967 276.169 127.522 276.396C127.077 276.624 126.741 277.019 126.587 277.494C126.433 277.97 126.474 278.487 126.702 278.932L167.136 358.059C167.248 358.279 167.403 358.475 167.591 358.636C167.78 358.797 167.998 358.919 168.234 358.995C168.469 359.072 168.718 359.101 168.964 359.081C169.211 359.061 169.452 358.993 169.672 358.881C169.893 358.768 170.089 358.613 170.25 358.424C170.41 358.236 170.532 358.017 170.608 357.782C170.684 357.546 170.713 357.298 170.694 357.051C170.674 356.804 170.605 356.564 170.493 356.343L130.058 277.217Z" fill="white"/>
<path d="M119.988 282.363C119.875 282.143 119.721 281.947 119.532 281.786C119.344 281.626 119.126 281.504 118.89 281.428C118.655 281.351 118.406 281.322 118.16 281.342C117.913 281.362 117.672 281.43 117.452 281.542C117.232 281.655 117.036 281.81 116.875 281.998C116.714 282.187 116.593 282.405 116.516 282.64C116.44 282.876 116.411 283.124 116.431 283.371C116.451 283.618 116.519 283.858 116.631 284.079L157.065 363.205C157.293 363.65 157.688 363.986 158.163 364.14C158.639 364.294 159.156 364.253 159.602 364.026C160.047 363.798 160.383 363.403 160.537 362.927C160.691 362.452 160.65 361.935 160.422 361.489L119.988 282.363Z" fill="white"/>
<path opacity="0.2" d="M46.2412 286.951L60.2432 351.037L61.4355 345.517L46.2412 286.951Z" fill="black"/>
<path d="M62.694 228.999C62.7829 228.435 62.6444 227.859 62.3088 227.397C61.9733 226.934 61.4681 226.624 60.9041 226.534L25.2809 220.881C24.7167 220.792 24.1403 220.931 23.6781 221.266C23.2159 221.602 22.9057 222.107 22.8155 222.671L0.0267545 366.28C-0.0621004 366.844 0.0764848 367.42 0.412095 367.882C0.747705 368.344 1.25293 368.655 1.81694 368.745L37.4401 374.398C38.0043 374.487 38.5807 374.348 39.0428 374.012C39.505 373.677 39.8151 373.172 39.9053 372.608L62.694 228.999Z" fill="#E6E6E6"/>
<path d="M39.801 255.76C46.0469 255.76 51.1103 250.697 51.1103 244.451C51.1103 238.205 46.0469 233.142 39.801 233.142C33.555 233.142 28.4917 238.205 28.4917 244.451C28.4917 250.697 33.555 255.76 39.801 255.76Z" fill="#9BD88C"/>
<path d="M43.1539 271.429C43.193 271.185 43.1836 270.935 43.126 270.694C43.0685 270.453 42.964 270.225 42.8186 270.025C42.6732 269.824 42.4896 269.654 42.2785 269.525C42.0674 269.395 41.8328 269.309 41.5881 269.27C41.3434 269.231 41.0935 269.241 40.8527 269.299C40.6118 269.356 40.3847 269.461 40.1843 269.607C39.9839 269.753 39.8143 269.936 39.685 270.148C39.5557 270.359 39.4693 270.594 39.4307 270.838L25.5043 358.599C25.4259 359.093 25.5469 359.597 25.8406 360.002C26.1343 360.406 26.5767 360.678 27.0704 360.756C27.5642 360.834 28.0688 360.713 28.4733 360.42C28.8778 360.126 29.1491 359.683 29.2274 359.19L43.1539 271.429Z" fill="white"/>
<path d="M31.9838 269.657C32.0226 269.412 32.0129 269.162 31.9552 268.922C31.8975 268.681 31.7929 268.454 31.6475 268.254C31.5021 268.053 31.3186 267.884 31.1076 267.754C30.8966 267.625 30.6621 267.538 30.4177 267.5C30.1732 267.461 29.9235 267.471 29.6828 267.528C29.4421 267.586 29.2151 267.691 29.0148 267.836C28.8145 267.981 28.6448 268.165 28.5154 268.376C28.386 268.587 28.2995 268.821 28.2607 269.066L14.3342 356.826C14.2951 357.071 14.3046 357.321 14.3621 357.562C14.4196 357.803 14.5241 358.03 14.6695 358.231C14.815 358.431 14.9985 358.601 15.2096 358.731C15.4208 358.86 15.6554 358.947 15.9 358.986C16.1447 359.024 16.3946 359.015 16.6355 358.957C16.8763 358.899 17.1034 358.794 17.3038 358.649C17.5042 358.503 17.6739 358.319 17.8032 358.108C17.9325 357.897 18.0188 357.662 18.0574 357.417L31.9838 269.657Z" fill="white"/>
<path d="M47.1375 206.661L49.0986 214.505C49.0986 214.505 56.4529 235.097 50.0792 234.117C43.7055 233.136 40.7638 215.486 40.7638 215.486L39.7832 209.112L47.1375 206.661Z" fill="#FFB6B6"/>
<path d="M43.5877 121.05L36.7235 120.5L16.6221 177.863L39.6656 217.576L55.8449 205.319L38.6849 177.373L51.9227 141.582L43.5877 121.05Z" fill="#282936"/>
</g>
<defs>
<clipPath id="clip0">
<rect width="400" height="380.445" fill="white"/>
</clipPath>
</defs>
</svg>
